<svg width="609" height="365" viewBox="0 0 609 365" fill="none" xmlns="http://www.w3.org/2000/svg">
<g opacity="0.42">
<path d="M0 314.637L76.01 314.397L152.02 314.307L304.04 314.137L456.06 314.307L532.07 314.397L608.08 314.637L532.07 314.887L456.06 314.967L304.04 315.137L152.02 314.967L76.01 314.877L0 314.637Z" fill="#263238"/>
<path d="M239.29 352.547C236.96 353.337 170.15 353.547 167.59 351.967C166.59 351.367 166.02 341.637 165.59 329.857C165.5 327.317 165.43 324.687 165.37 322.027L160.04 286.387L204.71 286.097L208.92 321.747L208.75 329.587C208.75 329.587 234.37 340.937 236.99 342.997C239.61 345.057 241.62 351.757 239.29 352.547Z" fill="#EB9481"/>
<path d="M239.29 352.547C236.96 353.337 170.15 353.547 167.59 351.967C166.41 351.227 165.77 337.017 165.41 322.027L208.87 321.747L208.7 329.587C208.7 329.587 234.32 340.937 236.94 342.997C239.56 345.057 241.62 351.757 239.29 352.547Z" fill="white"/>
<path d="M239.29 352.547C236.96 353.337 170.15 353.547 167.59 351.967C166.59 351.367 166.02 341.637 165.59 329.857L208.66 329.587C208.66 329.587 234.28 340.937 236.9 342.997C239.52 345.057 241.62 351.757 239.29 352.547Z" fill="#A6A6A6"/>
<path d="M238.32 349.877C227.12 349.637 181.92 349.747 170.83 350.367C170.74 350.367 170.74 350.427 170.83 350.437C181.93 350.907 227.13 350.437 238.32 350.057C238.56 350.047 238.56 349.877 238.32 349.877Z" fill="#263238"/>
<path d="M232.63 340.607C231.385 340.58 230.147 340.81 228.996 341.285C227.844 341.761 226.804 342.47 225.94 343.368C224.367 344.97 223.478 347.122 223.46 349.368C223.46 349.438 223.58 349.438 223.59 349.368C223.962 347.155 225.04 345.122 226.662 343.572C228.284 342.022 230.363 341.038 232.59 340.768C232.612 340.773 232.634 340.769 232.653 340.758C232.672 340.747 232.685 340.729 232.69 340.708C232.696 340.686 232.692 340.664 232.681 340.645C232.67 340.626 232.652 340.613 232.63 340.607Z" fill="#263238"/>
<path d="M213.041 330.687C208.561 330.637 203.371 332.237 200.591 335.917C200.491 336.057 200.691 336.207 200.821 336.137C204.735 334.071 208.858 332.429 213.121 331.237C213.186 331.219 213.243 331.178 213.281 331.121C213.318 331.064 213.334 330.995 213.324 330.927C213.314 330.859 213.28 330.798 213.227 330.754C213.175 330.71 213.109 330.686 213.041 330.687Z" fill="#263238"/>
<path d="M216.52 332.017C212.03 332.017 206.84 333.577 204.07 337.247C203.96 337.397 204.16 337.547 204.3 337.477C208.209 335.404 212.329 333.758 216.59 332.567C216.655 332.55 216.712 332.509 216.749 332.453C216.787 332.397 216.803 332.329 216.794 332.262C216.786 332.195 216.753 332.134 216.703 332.089C216.653 332.044 216.588 332.018 216.52 332.017Z" fill="#263238"/>
<path d="M219.98 333.357C215.5 333.357 210.31 334.907 207.53 338.587C207.43 338.727 207.63 338.878 207.76 338.808C211.675 336.741 215.798 335.099 220.06 333.908C220.126 333.889 220.183 333.848 220.221 333.791C220.258 333.734 220.273 333.665 220.264 333.597C220.254 333.529 220.22 333.468 220.167 333.424C220.115 333.38 220.049 333.356 219.98 333.357Z" fill="#263238"/>
<path d="M223.45 334.697C218.96 334.647 213.77 336.247 211 339.927C210.89 340.067 211.1 340.217 211.23 340.147C215.143 338.08 219.267 336.437 223.53 335.248C223.596 335.229 223.653 335.188 223.69 335.131C223.728 335.074 223.743 335.005 223.733 334.937C223.723 334.87 223.689 334.808 223.637 334.764C223.585 334.72 223.518 334.696 223.45 334.697Z" fill="#263238"/>
<path d="M173.65 339.717C168.65 339.717 168.65 347.567 173.65 347.537C178.65 347.507 178.69 339.687 173.65 339.717Z" fill="#263238"/>
<path d="M217.85 318.707C215.58 316.827 212.72 318.707 211.33 320.637C209.016 324.049 207.637 328.007 207.33 332.117C207.33 332.207 207.4 332.247 207.47 332.247C207.488 332.332 207.526 332.411 207.58 332.478C207.635 332.545 207.705 332.598 207.784 332.632C207.864 332.667 207.95 332.681 208.036 332.675C208.123 332.669 208.206 332.643 208.28 332.597C211.46 330.387 215.14 328.407 217.55 325.277C218.92 323.457 220.04 320.457 217.85 318.707ZM212.39 328.247C210.85 329.377 209.26 330.427 207.76 331.617C208.56 329.377 209.25 327.117 210.27 324.957C210.741 323.922 211.283 322.92 211.89 321.957C212.89 320.467 217.25 316.707 217.71 321.577C217.97 324.247 214.22 326.907 212.39 328.247Z" fill="#263238"/>
<path d="M196.17 333.817C200.07 334.397 204.1 333.277 207.93 332.667C208.013 332.646 208.09 332.605 208.155 332.548C208.219 332.491 208.27 332.42 208.302 332.341C208.334 332.261 208.347 332.175 208.339 332.089C208.332 332.003 208.305 331.921 208.26 331.848C208.275 331.836 208.286 331.822 208.295 331.805C208.303 331.789 208.307 331.771 208.307 331.753C208.307 331.734 208.303 331.716 208.295 331.7C208.286 331.683 208.275 331.669 208.26 331.658C205.183 328.913 201.437 327.026 197.4 326.188C195.04 325.738 191.7 326.387 191.4 329.317C191.04 332.077 193.89 333.457 196.17 333.817ZM193.45 331.278C190.45 327.438 196.18 327.107 197.9 327.507C199.016 327.787 200.112 328.141 201.18 328.567C203.367 329.474 205.507 330.492 207.59 331.618C205.69 331.808 203.82 332.148 201.93 332.408C199.67 332.708 195.13 333.388 193.45 331.278Z" fill="#263238"/>
<path d="M94.3604 121.657C94.3604 121.657 146.23 209.897 147.62 216.097C149.75 225.617 161.04 319.627 161.04 319.627L215.04 318.627C215.04 318.627 205.74 235.737 196.93 208.427C190.59 188.757 144.81 123.517 144.81 123.517L94.3604 121.657Z" fill="#37474F"/>
<path d="M210.13 310.387C202.38 310.327 174.91 310.017 164.59 310.977C164.51 310.977 164.52 311.117 164.59 311.127C168.14 311.637 202.37 310.847 210.12 310.597C210.137 310.603 210.154 310.605 210.171 310.603C210.188 310.601 210.205 310.595 210.219 310.586C210.233 310.576 210.245 310.563 210.254 310.548C210.262 310.533 210.267 310.516 210.268 310.499C210.269 310.482 210.265 310.465 210.258 310.449C210.251 310.433 210.241 310.42 210.227 310.409C210.214 310.398 210.198 310.39 210.181 310.387C210.165 310.383 210.147 310.383 210.13 310.387Z" fill="#263238"/>
<path d="M103.21 129.757C106.61 135.087 110.21 140.307 113.67 145.597C117.13 150.887 120.61 156.177 124.04 161.457C130.88 172.124 137.547 182.861 144.04 193.667C147.209 198.677 149.92 203.961 152.14 209.457C154.167 214.955 155.69 220.625 156.69 226.397C157.75 232.187 158.45 238.037 159.1 243.887C159.767 250.107 160.464 256.331 161.19 262.557C162.61 275.297 164.034 288.037 165.46 300.777C165.63 302.337 165.8 303.897 165.96 305.467C165.96 305.697 165.57 305.737 165.54 305.467C163.95 292.817 162.63 280.117 161.19 267.467C160.47 261.154 159.754 254.844 159.04 248.537C158.37 242.667 157.73 236.787 156.82 230.957C155.985 225.203 154.715 219.52 153.02 213.957C151.153 208.198 148.651 202.664 145.56 197.457C139.31 186.667 132.69 176.067 126.07 165.457C119.45 154.847 112.65 144.147 105.67 133.667C104.81 132.377 103.94 131.087 103.04 129.817C102.97 129.747 103.15 129.657 103.21 129.757Z" fill="#263238"/>
<path d="M111.36 357.747C108.9 357.597 45.3603 331.857 43.6003 329.417C43.5219 329.274 43.4871 329.111 43.5003 328.947C43.5003 326.757 47.9103 319.117 51.5903 309.077C51.8203 308.437 53.4603 305.457 55.7303 301.447C62.0403 290.457 73.0403 271.527 73.0403 271.527L114.57 288.027L94.6903 317.777L91.6003 324.977C91.6003 324.977 111.09 345.127 112.73 347.977C114.37 350.827 113.81 357.887 111.36 357.747Z" fill="#EB9481"/>
<path d="M111.36 357.747C108.9 357.597 45.3603 331.857 43.6003 329.417C43.5219 329.274 43.4871 329.111 43.5003 328.947C43.5003 326.757 47.9103 319.117 51.5903 309.077C51.8203 308.437 53.4603 305.457 55.7303 301.447L94.7303 317.777L91.6403 324.977C91.6403 324.977 111.13 345.127 112.77 347.977C114.41 350.827 113.81 357.887 111.36 357.747Z" fill="white"/>
<path d="M111.36 357.747C108.9 357.597 45.3605 331.857 43.6005 329.417C42.9205 328.487 45.7605 319.817 51.6005 309.077L91.6005 324.987C91.6005 324.987 111.09 345.117 112.74 347.987C114.39 350.857 113.81 357.887 111.36 357.747Z" fill="#A6A6A6"/>
<path d="M111.46 354.908C101.17 350.488 59.2302 333.627 48.7202 330.047C48.6302 330.047 48.6102 330.047 48.7202 330.107C58.8302 334.707 100.9 351.227 111.42 355.107C111.62 355.157 111.68 354.998 111.46 354.908Z" fill="#263238"/>
<path d="M109.66 344.177C108.519 343.676 107.287 343.417 106.04 343.417C104.794 343.417 103.561 343.676 102.42 344.177C100.369 345.076 98.7426 346.731 97.8804 348.797C97.8804 348.857 97.9704 348.908 98.0004 348.848C99.1793 346.93 100.948 345.446 103.041 344.619C105.134 343.791 107.439 343.665 109.61 344.257C109.627 344.253 109.642 344.242 109.651 344.227C109.66 344.212 109.664 344.195 109.66 344.177Z" fill="#263238"/>
<path d="M95.2301 327.637C91.1001 325.907 85.6801 325.447 81.7301 327.817C81.5801 327.907 81.7301 328.117 81.8601 328.107C86.2634 327.661 90.7018 327.684 95.1001 328.177C95.1678 328.185 95.2358 328.167 95.2915 328.128C95.3472 328.089 95.3867 328.031 95.4026 327.965C95.4186 327.898 95.4098 327.829 95.3781 327.769C95.3463 327.708 95.2937 327.662 95.2301 327.637Z" fill="#263238"/>
<path d="M97.9401 330.177C93.8101 328.447 88.3901 327.987 84.4401 330.357C84.2901 330.447 84.4401 330.658 84.5701 330.648C88.9732 330.196 93.4121 330.219 97.8101 330.718C97.8778 330.725 97.9458 330.707 98.0015 330.668C98.0572 330.629 98.0967 330.571 98.1126 330.505C98.1285 330.438 98.1198 330.369 98.088 330.309C98.0563 330.248 98.0037 330.202 97.9401 330.177Z" fill="#263238"/>
<path d="M100.66 332.717C96.5201 330.987 91.1001 330.527 87.1601 332.897C87.0001 332.987 87.1601 333.197 87.2801 333.187C91.6832 332.736 96.122 332.759 100.52 333.257C100.589 333.269 100.66 333.254 100.719 333.216C100.778 333.178 100.82 333.119 100.837 333.052C100.855 332.984 100.847 332.912 100.814 332.85C100.781 332.788 100.726 332.741 100.66 332.717Z" fill="#263238"/>
<path d="M103.37 335.257C99.2301 333.527 93.8201 333.067 89.8701 335.427C89.7101 335.527 89.8701 335.737 89.9901 335.727C94.3931 335.276 98.832 335.299 103.23 335.797C103.299 335.809 103.37 335.794 103.429 335.756C103.487 335.718 103.53 335.659 103.547 335.592C103.565 335.524 103.556 335.452 103.524 335.39C103.491 335.328 103.436 335.281 103.37 335.257Z" fill="#263238"/>
<path d="M55.3205 321.227C50.6505 319.367 47.7505 326.637 52.4405 328.497C57.1305 330.357 60.0405 323.087 55.3205 321.227Z" fill="#263238"/>
<path d="M104.18 318.338C102.77 315.748 99.4404 316.387 97.4104 317.677C93.9908 319.968 91.2322 323.117 89.4104 326.808C89.4024 326.824 89.3981 326.841 89.398 326.86C89.3978 326.878 89.4017 326.895 89.4094 326.912C89.4171 326.928 89.4283 326.943 89.4424 326.954C89.4564 326.965 89.4728 326.973 89.4904 326.977C89.4904 327.307 89.7104 327.698 90.1004 327.618C93.8904 326.748 98.0404 326.297 101.44 324.297C103.39 323.137 105.51 320.788 104.18 318.338ZM95.5304 325.128C93.6804 325.598 91.8204 325.977 89.9904 326.517C91.5041 324.694 93.1095 322.948 94.8004 321.287C95.6328 320.495 96.5182 319.76 97.4504 319.088C98.9004 318.088 104.38 316.237 102.98 320.927C102.21 323.517 97.7404 324.568 95.5304 325.128Z" fill="#263238"/>
<path d="M78.4101 324.207C81.8101 326.207 85.9601 326.677 89.7401 327.557C90.1301 327.647 90.3901 327.257 90.3601 326.917C90.3788 326.915 90.3968 326.909 90.4121 326.898C90.4275 326.887 90.4398 326.872 90.4478 326.855C90.4559 326.838 90.4594 326.819 90.458 326.8C90.4567 326.781 90.4505 326.763 90.4401 326.747C88.6211 323.049 85.8623 319.894 82.4401 317.597C80.4401 316.297 77.0901 315.647 75.6701 318.227C74.2501 320.807 76.4201 323.037 78.4101 324.207ZM76.8501 320.827C75.4601 316.137 80.9301 317.997 82.3801 319.007C83.3112 319.681 84.1934 320.419 85.0201 321.217C86.7078 322.882 88.3098 324.631 89.8201 326.457C87.9901 325.917 86.1301 325.527 84.2801 325.057C82.0401 324.457 77.6101 323.457 76.8501 320.827Z" fill="#263238"/>
<path d="M97.9202 316.117L51.4302 297.347C51.4302 297.347 109.07 212.597 109.49 206.287C109.87 200.707 84.5502 152.087 83.5602 137.917C82.4802 122.617 89.8402 110.787 97.9402 103.437L145.89 123.827C145.89 123.827 140.83 131.917 132.89 136.427C132.89 136.427 157.48 192.627 156.08 209.907C154.68 227.187 97.9202 316.117 97.9202 316.117Z" fill="#37474F"/>
<path d="M99.9801 307.277C93.2601 304.387 95.2301 305.117 88.4701 302.277C85.1701 300.897 63.4701 291.867 60.1301 291.117C60.0601 291.117 60.0101 291.217 60.0801 291.257C62.9701 293.027 84.8501 301.677 88.1801 302.997C94.9901 305.677 93.0601 304.838 99.9001 307.438C99.9103 307.451 99.9239 307.462 99.9394 307.469C99.955 307.476 99.9721 307.479 99.9891 307.477C100.006 307.476 100.022 307.47 100.036 307.46C100.051 307.451 100.062 307.437 100.07 307.422C100.077 307.407 100.081 307.39 100.08 307.373C100.079 307.356 100.074 307.339 100.065 307.325C100.056 307.31 100.044 307.298 100.029 307.29C100.014 307.282 99.9972 307.277 99.9801 307.277Z" fill="#263238"/>
<path d="M140.75 135.397C135.758 136.561 130.874 138.147 126.15 140.137C126.131 140.144 126.114 140.154 126.099 140.168C126.083 140.181 126.071 140.197 126.062 140.215C126.054 140.233 126.048 140.253 126.047 140.273C126.046 140.293 126.049 140.313 126.055 140.332C126.062 140.352 126.072 140.369 126.085 140.384C126.099 140.399 126.115 140.412 126.133 140.42C126.151 140.429 126.171 140.434 126.191 140.436C126.211 140.437 126.231 140.434 126.25 140.427C131.15 138.997 136.13 137.657 140.95 135.967C141.32 135.837 141.13 135.317 140.75 135.397Z" fill="#263238"/>
<path d="M135.04 133.457C134.574 134.286 134.163 135.145 133.81 136.027C133.465 136.697 133.251 137.427 133.18 138.177C133.18 138.327 133.38 138.357 133.47 138.267C133.972 137.667 134.377 136.993 134.67 136.267C135.08 135.477 135.5 134.697 135.89 133.887C136.16 133.297 135.35 132.917 135.04 133.457Z" fill="#263238"/>
<path d="M135.64 128.917C135.94 128.177 136.23 127.447 136.54 126.707C136.85 125.967 137.24 125.207 137.54 124.427C137.54 124.307 137.78 124.427 137.73 124.517C137.43 125.257 137.24 126.037 137.01 126.797C136.78 127.557 136.52 128.317 136.27 129.077C135.8 130.487 135.27 131.887 134.62 133.257C135.407 133.297 136.193 133.16 136.92 132.857C137.663 132.382 138.234 131.681 138.55 130.857C138.97 130.037 139.36 129.197 139.79 128.377C140.319 127.491 140.765 126.557 141.12 125.587C141.12 125.467 141.36 125.587 141.31 125.677C140.658 127.727 139.804 129.707 138.76 131.587C138.31 132.317 137.96 133.087 137.14 133.367C136.252 133.616 135.324 133.68 134.41 133.557C134.29 133.557 134.15 133.557 134.19 133.377C134.6 131.868 135.083 130.379 135.64 128.917Z" fill="#263238"/>
<path d="M133.6 138.257C135.31 141.867 136.81 145.467 138.4 149.067C139.99 152.667 141.4 156.147 142.83 159.727C145.69 166.947 148.25 174.307 150.5 181.727C151.61 185.407 152.64 189.117 153.56 192.857C154.574 196.586 155.316 200.382 155.78 204.217C156.182 208.046 155.842 211.917 154.78 215.617C153.678 219.275 152.262 222.832 150.55 226.247C149.5 228.407 149.15 228.117 149.65 227.027C151.08 223.927 154.83 214.537 154.56 206.647C154.342 202.87 153.759 199.123 152.82 195.457C151.947 191.677 150.964 187.927 149.87 184.207C147.74 176.867 145.21 169.677 142.61 162.497C141.15 158.497 139.61 154.497 138.11 150.497C136.61 146.497 135.11 142.817 133.43 138.397C133.38 138.217 133.55 138.147 133.6 138.257Z" fill="#263238"/>
<path d="M98.3103 126.327C99.1403 126.017 100.31 126.527 101.15 126.667C102.238 126.852 103.337 126.962 104.44 126.997C105.532 127.036 106.624 126.999 107.71 126.887C108.804 126.859 109.876 126.575 110.84 126.057C112.422 124.905 113.778 123.471 114.84 121.827C116.106 120.148 117.151 118.313 117.95 116.367C117.95 116.247 118.16 116.367 118.12 116.447C117.77 117.557 117.51 118.677 117.12 119.767C116.689 120.792 116.174 121.778 115.58 122.717C114.618 124.607 113.194 126.224 111.44 127.417C109.51 128.517 107.03 128.417 104.88 128.327C103.633 128.255 102.393 128.091 101.17 127.837C100.29 127.647 98.8103 127.507 98.2503 126.737C98.224 126.708 98.2045 126.673 98.1931 126.635C98.1817 126.597 98.1788 126.558 98.1845 126.518C98.1902 126.479 98.2044 126.442 98.2262 126.409C98.2479 126.376 98.2767 126.348 98.3103 126.327Z" fill="#263238"/>
<path d="M64.7002 288.457C72.3402 276.884 79.8402 265.217 87.2002 253.457C94.5602 241.697 101.82 229.847 108.98 217.907C110.69 215.057 112.66 212.217 113.76 209.057C114.96 205.627 114.28 202.297 113.2 198.937C111.161 192.808 108.777 186.798 106.06 180.937C103.38 175.027 100.49 169.217 97.6502 163.387C94.8102 157.557 91.8402 151.797 89.6502 145.717C87.6502 139.907 86.8402 133.887 88.4002 127.867C89.9602 121.847 93.3201 116.527 96.8301 111.517C97.7501 110.197 98.7001 108.887 99.6301 107.517C99.7001 107.417 99.8502 107.517 99.7802 107.637C95.9102 112.857 92.1402 118.387 89.8702 124.517C88.71 127.539 88.0611 130.733 87.9502 133.967C87.9312 137.251 88.4411 140.516 89.4602 143.637C91.3402 149.717 94.3101 155.467 97.0801 161.187C99.8501 166.907 102.81 172.827 105.54 178.717C108.357 184.645 110.86 190.717 113.04 196.907C113.97 199.657 115.04 202.537 114.96 205.487C114.89 208.717 113.35 211.627 111.75 214.347C104.75 226.197 97.5802 237.907 90.2802 249.547C82.9802 261.187 75.4702 272.827 67.8702 284.347L64.9902 288.697C64.8402 288.877 64.5802 288.667 64.7002 288.457Z" fill="#263238"/>
<path d="M148.55 69.9275C152.88 79.4275 174.75 92.5175 184.99 93.9275C192.35 94.9275 214.73 95.2875 222.4 94.1175C231.4 92.7375 224.52 68.4875 219.21 69.1175C204.61 70.8175 192.21 72.7175 188.31 72.7175C183.55 72.7175 157.8 64.4575 154.7 63.2875C147.1 60.4575 146.1 64.5375 148.55 69.9275Z" fill="#EB9481"/>
<path d="M148.69 72.4575C154.17 80.5675 172.38 93.8274 172.38 93.8274L174.91 88.2275L183.28 69.7075C183.28 69.7075 166.55 64.4575 155.54 62.0575C154.245 61.7626 152.927 61.5753 151.6 61.4974C144.57 61.1174 143.96 65.4575 148.69 72.4575Z" fill="#FCA914"/>
<path d="M148.69 72.4575C154.17 80.5675 172.38 93.8275 172.38 93.8275L174.91 88.2275C168.12 80.3375 157.63 68.3875 151.6 61.5175C144.57 61.1175 143.96 65.4575 148.69 72.4575Z" fill="#263238"/>
<path d="M169.1 90.0675C170.49 86.6575 176.67 72.9275 178.21 70.0675C178.31 69.8675 178.47 69.8875 178.38 70.0675C175.699 76.8954 172.648 83.5719 169.24 90.0675C169.2 90.1875 169.04 90.1475 169.1 90.0675Z" fill="#263238"/>
<path d="M216.53 69.3675C225.41 68.2075 236.4 66.2175 245.71 70.1675C246.756 70.5776 247.633 71.3279 248.2 72.2975C252.4 73.9975 252.86 76.4875 252.86 76.4875C256.29 79.2675 256.41 81.8875 256.41 81.8875C256.41 81.8875 261.33 83.8875 260.58 87.1075C259.76 90.6675 253.02 87.1075 248.12 87.3975C236.87 88.0975 221.12 92.2275 217.87 92.7475L216.53 69.3675Z" fill="#EB9481"/>
<path d="M235.82 79.8475C239.11 79.6225 242.411 79.6225 245.7 79.8475C249.283 80.2969 252.826 81.0156 256.3 81.9975C256.323 82.0054 256.348 82.0041 256.369 81.9938C256.391 81.9835 256.407 81.965 256.415 81.9425C256.423 81.9199 256.422 81.8952 256.412 81.8736C256.401 81.852 256.383 81.8354 256.36 81.8275C249.833 79.2666 242.728 78.5471 235.82 79.7475C235.66 79.7275 235.66 79.8575 235.82 79.8475Z" fill="#263238"/>
<path d="M233.73 69.4575C239.22 69.7375 242.65 70.6175 248.17 72.2775V72.2175C242.09 69.6775 239.6 69.4375 233.7 69.2175C233.51 69.2975 233.52 69.4575 233.73 69.4575Z" fill="#263238"/>
<path d="M234.62 89.0975C233.19 89.7675 233.54 90.5175 236.27 91.1475C239 91.7775 250.35 91.9675 249.95 95.9275C249.55 99.8875 233.54 99.3875 229.07 97.9875C224.6 96.5875 217.87 92.7475 217.87 92.7475C221.04 92.2175 228.48 90.2075 234.62 89.0975Z" fill="#EB9481"/>
<path d="M160.44 85.0675C160.37 86.7775 160.21 88.5175 159.97 90.2475C159.97 90.1775 159.97 90.1175 160.04 90.0575C160.37 89.1575 160.7 88.2375 161.1 87.3675C161.1 87.3675 161.2 87.3675 161.19 87.3675C160.998 88.3208 160.71 89.2522 160.33 90.1475C160.15 90.5775 159.98 90.9975 159.79 91.4175C159.67 92.1875 159.53 92.9475 159.38 93.7075C159.08 95.1375 157.73 101.217 157.38 102.247C157.32 102.457 157.06 102.407 157.08 102.167C157.15 101.047 158.28 94.7175 158.51 93.2775C158.957 90.4971 159.554 87.743 160.3 85.0275C160.35 84.9775 160.45 85.0175 160.44 85.0675Z" fill="#263238"/>
<path d="M150.04 130.537C147.37 131.907 143.93 134.037 128.43 130.987C127.43 130.787 126.49 130.547 125.51 130.257C110.98 125.897 93.5101 108.807 92.5601 107.597C92.5601 107.597 115.65 70.1675 145.18 58.3975C148.83 56.9475 154.87 59.7475 158.18 63.2375C159.37 64.4875 161.96 73.6775 160.97 81.1175C159.98 88.5575 152.7 129.167 150.04 130.537Z" fill="#FCA914"/>
<path d="M147.96 80.7775C148.072 82.3592 147.85 83.9466 147.31 85.4375C147.183 83.8553 147.405 82.2646 147.96 80.7775Z" fill="white"/>
<path d="M137.89 106.267C137.954 107.055 137.927 107.846 137.81 108.627C137.714 109.414 137.523 110.187 137.24 110.927C137.171 110.137 137.198 109.341 137.32 108.557C137.423 107.775 137.614 107.007 137.89 106.267Z" fill="white"/>
<path d="M120.78 86.9975C120.893 88.5825 120.672 90.1735 120.13 91.6675C120.005 90.0821 120.227 88.4883 120.78 86.9975Z" fill="white"/>
<path d="M154.55 104.967C154.614 105.758 154.587 106.553 154.47 107.337C154.374 108.124 154.183 108.897 153.9 109.637C153.832 108.847 153.858 108.051 153.98 107.267C154.082 106.481 154.273 105.71 154.55 104.967Z" fill="white"/>
<path d="M132.58 83.6975C133.367 83.6305 134.159 83.654 134.94 83.7675C135.727 83.8673 136.5 84.062 137.24 84.3475C135.658 84.4611 134.07 84.2396 132.58 83.6975Z" fill="white"/>
<path d="M113.16 102.107C114.742 101.996 116.329 102.217 117.82 102.757C116.238 102.884 114.647 102.662 113.16 102.107Z" fill="white"/>
<path d="M136.04 122.037C137.622 121.924 139.21 122.145 140.7 122.687C139.118 122.812 137.528 122.59 136.04 122.037Z" fill="white"/>
<path d="M107.17 114.797C108.752 114.686 110.34 114.907 111.83 115.447C110.248 115.572 108.658 115.35 107.17 114.797Z" fill="white"/>
<path d="M147.81 62.8575C149.392 62.746 150.979 62.9674 152.47 63.5075C150.888 63.619 149.301 63.3976 147.81 62.8575Z" fill="white"/>
<path d="M142.16 69.2375C141.655 69.8452 141.077 70.3892 140.44 70.8575C139.821 71.3367 139.15 71.7458 138.44 72.0775C138.943 71.4737 139.513 70.93 140.14 70.4575C140.766 69.9765 141.444 69.5673 142.16 69.2375Z" fill="white"/>
<path d="M111.37 87.3675C110.858 87.9699 110.278 88.5103 109.64 88.9775C109.027 89.4657 108.355 89.8755 107.64 90.1975C108.155 89.5976 108.735 89.0575 109.37 88.5875C109.985 88.1013 110.657 87.6917 111.37 87.3675Z" fill="white"/>
<path d="M149.82 95.5475C149.309 96.153 148.728 96.6968 148.09 97.1675C147.476 97.6536 146.804 98.0633 146.09 98.3875C146.602 97.7819 147.182 97.2382 147.82 96.7675C148.439 96.2862 149.11 95.8769 149.82 95.5475Z" fill="white"/>
<path d="M124.92 111.227C124.409 111.833 123.828 112.377 123.19 112.847C122.575 113.332 121.903 113.742 121.19 114.067C121.702 113.462 122.283 112.918 122.92 112.447C123.539 111.966 124.21 111.557 124.92 111.227Z" fill="white"/>
<path d="M159.36 74.1275C158.849 74.7331 158.268 75.2767 157.63 75.7475C157.011 76.2266 156.34 76.6358 155.63 76.9675C156.142 76.3619 156.723 75.8182 157.36 75.3475C157.976 74.8628 158.648 74.4532 159.36 74.1275Z" fill="white"/>
<path d="M158.84 92.2975C158.235 91.7859 157.691 91.2053 157.22 90.5675C156.734 89.9531 156.324 89.2814 156 88.5675C156.608 89.073 157.152 89.6506 157.62 90.2875C158.098 90.9117 158.507 91.5856 158.84 92.2975Z" fill="white"/>
<path d="M103.34 104.817C102.735 104.306 102.191 103.725 101.72 103.087C101.239 102.469 100.83 101.798 100.5 101.087C101.106 101.599 101.65 102.18 102.12 102.817C102.605 103.433 103.015 104.105 103.34 104.817Z" fill="white"/>
<path d="M152.09 119.707C151.483 119.202 150.939 118.624 150.47 117.987C149.991 117.368 149.582 116.697 149.25 115.987C149.856 116.499 150.4 117.08 150.87 117.717C151.353 118.331 151.762 118.999 152.09 119.707Z" fill="white"/>
<path d="M127.66 77.2575C127.055 76.7494 126.511 76.1722 126.04 75.5375C125.563 74.9164 125.154 74.2459 124.82 73.5375C125.428 74.043 125.972 74.6206 126.44 75.2575C126.917 75.8785 127.326 76.549 127.66 77.2575Z" fill="white"/>
<path d="M128.09 128.187C127.485 127.676 126.941 127.095 126.47 126.457C125.991 125.838 125.582 125.167 125.25 124.457C125.858 124.963 126.402 125.541 126.87 126.177C127.352 126.799 127.761 127.474 128.09 128.187Z" fill="white"/>
<path d="M132.24 98.1475C131.64 97.633 131.1 97.0527 130.63 96.4175C130.142 95.8041 129.732 95.1323 129.41 94.4175C130.013 94.9292 130.553 95.5099 131.02 96.1475C131.506 96.7623 131.916 97.4339 132.24 98.1475Z" fill="white"/>
<path d="M152.77 73.2075C149 72.5075 145.46 64.7175 145.01 59.4775C145.01 59.1175 146.77 56.2675 148.78 52.6975C150 50.5275 151.29 48.0775 152.32 45.7575C152.53 45.2875 153.76 46.8775 153.76 46.8775L156.44 48.8775L165.29 55.6675C163.183 58.1963 161.393 60.9737 159.96 63.9375C159.819 64.2587 159.712 64.5938 159.64 64.9375C159.636 64.9941 159.636 65.0509 159.64 65.1075C159.09 67.0875 156.4 73.8775 152.77 73.2075Z" fill="#EB9481"/>
<path d="M159.64 64.9875C159.637 65.0441 159.637 65.1009 159.64 65.1575C159.115 65.0034 158.603 64.8061 158.11 64.5675C148.42 60.0275 152.69 47.0475 152.69 47.0475L156.49 48.9275L165.34 55.7175C163.233 58.2464 161.443 61.0237 160.01 63.9875C159.852 64.3067 159.728 64.6419 159.64 64.9875Z" fill="#263238"/>
<path d="M175.46 28.0375C175.46 28.0375 179.89 30.8475 179.91 35.8475C179.93 40.8475 177.91 45.7375 177.49 45.9175C177.07 46.0975 175.46 28.0375 175.46 28.0375Z" fill="#263238"/>
<path d="M153.48 30.6375C150.82 35.8875 150.96 52.4375 154.28 56.6975C159.1 62.8775 168.38 65.0075 173.99 58.8975C179.42 52.9775 178.86 31.4175 174.99 27.3975C169.36 21.4575 157.42 22.8675 153.48 30.6375Z" fill="#EB9481"/>
<path d="M167.6 43.8875C167.6 43.8875 167.51 43.9475 167.52 43.9875C167.58 45.1175 167.46 46.4175 166.45 46.8175C166.45 46.8175 166.45 46.8875 166.45 46.8775C167.7 46.6775 167.84 44.9475 167.6 43.8875Z" fill="#263238"/>
<path d="M166.57 42.7375C164.75 42.6375 164.69 46.2775 166.38 46.3675C168.07 46.4575 168.09 42.8175 166.57 42.7375Z" fill="#263238"/>
<path d="M173.77 43.8475C173.77 43.8475 173.86 43.8475 173.86 43.9475C173.8 45.0775 173.93 46.3775 174.95 46.7675C174.95 46.7675 174.95 46.8375 174.95 46.8275C173.69 46.6375 173.54 44.9075 173.77 43.8475Z" fill="#263238"/>
<path d="M174.8 42.6875C176.61 42.5775 176.7 46.2175 175.02 46.3175C173.34 46.4175 173.28 42.7775 174.8 42.6875Z" fill="#263238"/>
<path d="M165.43 39.9675C165.908 39.8315 166.379 39.6713 166.84 39.4875C167.366 39.3924 167.844 39.125 168.2 38.7275C168.287 38.5819 168.323 38.412 168.303 38.2438C168.283 38.0757 168.208 37.9188 168.09 37.7975C167.82 37.5918 167.499 37.462 167.162 37.4215C166.824 37.3811 166.482 37.4315 166.17 37.5675C165.496 37.7481 164.911 38.172 164.53 38.7575C164.454 38.8968 164.42 39.0549 164.431 39.2133C164.442 39.3716 164.498 39.5234 164.593 39.6508C164.687 39.7781 164.817 39.8756 164.965 39.9318C165.114 39.9879 165.275 40.0003 165.43 39.9675Z" fill="#263238"/>
<path d="M176.04 41.5775C175.554 41.4687 175.073 41.3352 174.6 41.1775C174.073 41.1078 173.584 40.8651 173.21 40.4875C173.114 40.3484 173.067 40.1809 173.078 40.012C173.089 39.8432 173.157 39.683 173.27 39.5575C173.528 39.337 173.841 39.19 174.175 39.1319C174.509 39.0738 174.853 39.1069 175.17 39.2275C175.854 39.3692 176.461 39.7616 176.87 40.3275C176.956 40.4614 177.001 40.6174 176.999 40.7764C176.998 40.9354 176.951 41.0905 176.863 41.223C176.775 41.3554 176.65 41.4595 176.504 41.5224C176.358 41.5853 176.197 41.6045 176.04 41.5775Z" fill="#263238"/>
<path d="M165.04 54.5775C165.31 54.8475 165.57 55.2075 165.98 55.2475C166.401 55.2472 166.816 55.1587 167.2 54.9875C167.2 54.9875 167.27 54.9875 167.2 55.0475C167.037 55.2673 166.816 55.4383 166.562 55.5423C166.309 55.6462 166.031 55.6791 165.76 55.6375C165.532 55.5752 165.327 55.4472 165.17 55.2695C165.014 55.0917 164.913 54.872 164.88 54.6375C164.872 54.6163 164.873 54.5927 164.883 54.5721C164.892 54.5515 164.909 54.5354 164.93 54.5275C164.952 54.5195 164.975 54.5203 164.996 54.5297C165.016 54.5391 165.032 54.5563 165.04 54.5775Z" fill="#263238"/>
<path d="M171.58 49.7575C171.58 49.7575 171.63 51.4375 171.58 52.2275C170.044 52.0644 168.492 52.1183 166.97 52.3875C166.61 52.4675 166.65 52.1775 167.06 51.9875C168.286 51.4273 169.651 51.2462 170.98 51.4675C171.06 51.2575 170.85 48.8675 170.98 48.8775C171.585 48.9962 172.171 49.1981 172.72 49.4775C172.72 45.9575 172.16 42.4775 172.21 38.9575C172.21 38.8375 172.4 38.8175 172.42 38.9575C173.131 42.6812 173.466 46.4668 173.42 50.2575C173.43 50.6875 171.88 49.9175 171.58 49.7575Z" fill="#263238"/>
<path d="M169.33 51.6275C168.931 52.676 168.192 53.5601 167.23 54.1375C165.72 54.7475 165.23 53.3775 166.75 52.1375C167.547 51.7346 168.44 51.5582 169.33 51.6275Z" fill="#263238"/>
<path d="M167.76 53.8275C167.601 53.9575 167.422 54.062 167.23 54.1375C165.84 54.6975 165.29 53.5875 166.41 52.4675C167.17 52.5275 168.04 52.8075 167.76 53.8275Z" fill="#FF99BA"/>
<path d="M152.72 44.7875C154.55 45.3475 156.65 39.8475 157.25 37.7875C157.77 35.9275 158.37 30.0175 158.46 29.6075C158.55 29.1975 166.46 34.8375 171.04 33.4975C175.62 32.1575 178.73 28.0075 178.8 26.0775C178.87 24.1475 173.14 19.2475 168.19 18.9975C163.24 18.7475 156.53 24.9975 156.53 24.9975C157.341 24.0777 158.076 23.0945 158.73 22.0575C158.65 21.8375 155.45 23.1175 154.86 25.3975C154.86 25.3975 155.5 22.5275 155.26 22.4775C155.02 22.4275 152.53 24.8775 153.09 26.7375C153.09 26.7375 150.21 29.2275 149.95 31.9575C149.69 34.6875 150.57 44.1275 152.72 44.7875Z" fill="#263238"/>
<path d="M174.32 32.4575C172.958 33.196 171.491 33.7221 169.97 34.0175C168.263 34.1698 166.545 33.8948 164.97 33.2175C163.384 32.6047 161.911 31.7329 160.61 30.6375C159.46 29.6975 158.43 28.5475 157.2 27.7075C156.89 27.4875 156.54 27.9375 156.73 28.2175C158.782 31.1161 161.714 33.2761 165.09 34.3775C166.658 34.8888 168.332 34.9843 169.948 34.6548C171.564 34.3253 173.067 33.5819 174.31 32.4975C174.31 32.4975 174.34 32.4575 174.32 32.4575Z" fill="#263238"/>
<path d="M154.63 44.2975C154.63 44.2975 151.79 38.5375 149.23 39.4675C146.67 40.3975 148.23 48.3675 150.86 49.8275C151.182 50.0359 151.543 50.1771 151.921 50.2427C152.299 50.3083 152.687 50.2968 153.06 50.209C153.434 50.1213 153.786 49.959 154.095 49.7319C154.404 49.5048 154.664 49.2176 154.86 48.8875L154.63 44.2975Z" fill="#EB9481"/>
<path d="M149.74 41.7375C149.74 41.7375 149.68 41.7375 149.74 41.8175C151.56 42.8975 152.3 44.8175 152.74 46.8175C152.657 46.6058 152.529 46.4146 152.365 46.2571C152.201 46.0996 152.005 45.9797 151.79 45.9055C151.575 45.8313 151.347 45.8047 151.121 45.8275C150.894 45.8503 150.676 45.9219 150.48 46.0375C150.42 46.0375 150.48 46.1475 150.48 46.1475C150.838 46.0919 151.204 46.1485 151.528 46.3097C151.852 46.4709 152.119 46.7287 152.29 47.0475C152.576 47.5815 152.804 48.1447 152.97 48.7275C153.03 48.9175 153.36 48.8675 153.33 48.6575C153.76 46.1675 152.36 42.3975 149.74 41.7375Z" fill="#263238"/>
<path d="M135.88 70.0175C133.88 81.3475 146.16 119.517 154.03 126.647C165.74 137.247 187.39 144.217 195.24 146.487C198.66 147.487 208.12 123.417 204.66 121.827C197.25 118.457 174.23 111.257 172.04 109.457C169.85 107.657 156.65 88.5875 150.77 77.6075C142.9 62.8275 136.87 64.2875 135.88 70.0175Z" fill="#EB9481"/>
<path d="M198.83 119.707C198.83 119.707 209.05 122.317 215.64 124.327C219.32 125.457 225.46 127.947 227.79 130.007C231.27 133.097 243.85 148.217 240.25 151.347C236.99 154.187 227.83 139.817 227.83 139.817C227.83 139.817 238.35 153.497 233.83 156.187C229.31 158.877 221.04 141.267 221.04 141.267C221.04 141.267 231.53 155.567 226.4 157.597C222.52 159.127 214.2 143.597 214.2 143.597C214.2 143.597 223.14 155.947 219.2 157.697C214.86 159.637 206.29 145.777 206.29 145.777C195.57 148.547 189.29 145.477 185.16 142.777C184.19 142.117 198.83 119.707 198.83 119.707Z" fill="#EB9481"/>
<path d="M224.49 134.847C225.79 136.407 227.11 137.987 228.26 139.657C229.41 141.327 230.5 143.047 231.49 144.817C232.831 147.107 233.905 149.543 234.69 152.077C232.97 147.677 228.94 141.627 227.79 139.957C226.64 138.287 225.57 136.557 224.43 134.887C224.4 134.847 224.46 134.807 224.49 134.847Z" fill="#263238"/>
<path d="M218.381 138.897C220.601 140.657 225.251 147.197 227.041 151.587C227.121 151.767 227.041 151.757 226.911 151.587C225.511 149.417 219.831 141.017 218.331 138.927C218.301 138.897 218.351 138.867 218.381 138.897Z" fill="#263238"/>
<path d="M212.51 141.457C215.268 144.351 217.448 147.745 218.93 151.457C219 151.637 218.86 151.607 218.75 151.457C216.68 148.087 215.08 145.457 212.4 141.547C212.36 141.457 212.45 141.367 212.51 141.457Z" fill="#263238"/>
<path d="M147.04 70.8475C137.91 57.9375 132.45 62.7175 134.28 76.7375C136 89.8475 140.59 105.467 140.59 105.467L163.59 94.3075C163.59 94.3075 152.85 79.1175 147.04 70.8475Z" fill="#FCA914"/>
<path d="M152.59 75.9275C152.893 76.6567 153.111 77.4184 153.24 78.1975C153.381 78.9792 153.431 79.7744 153.39 80.5675C153.09 79.8345 152.876 79.0695 152.75 78.2875C152.602 77.5102 152.548 76.7177 152.59 75.9275Z" fill="white"/>
<path d="M138.96 83.7775C140.428 83.1805 142.008 82.9076 143.59 82.9775C142.861 83.2774 142.099 83.4921 141.32 83.6175C140.543 83.7659 139.751 83.8196 138.96 83.7775Z" fill="white"/>
<path d="M139.55 63.6975C138.931 65.1589 138.007 66.4715 136.84 67.5475C137.46 66.086 138.383 64.7735 139.55 63.6975Z" fill="white"/>
<path d="M159.04 89.8075C158.736 90.5389 158.351 91.2333 157.89 91.8775C157.442 92.5298 156.918 93.1273 156.33 93.6575C156.949 92.196 157.873 90.8835 159.04 89.8075Z" fill="white"/>
<path d="M143.04 97.6375C142.307 97.3375 141.612 96.9514 140.97 96.4875C140.318 96.0393 139.72 95.5157 139.19 94.9275C140.652 95.5467 141.964 96.4706 143.04 97.6375Z" fill="white"/>
<path d="M150.04 74.7375C151.27 76.4275 152.54 78.0775 153.8 79.7375C153.48 78.8975 153.2 78.0475 152.96 77.1875H153.02C153.27 77.8475 153.56 78.4975 153.8 79.1875L154.16 80.1875C154.191 80.2558 154.218 80.3259 154.24 80.3975C155.24 81.6875 156.24 82.9775 157.16 84.2975C158.29 85.8775 159.38 87.4775 160.48 89.0775C161.58 90.6775 162.69 92.6675 163.88 94.2775C163.99 94.4175 161.88 95.2775 161.65 95.3875C161.42 95.4975 161.3 95.3075 161.52 95.2375C161.74 95.1675 163.42 94.1375 163.44 94.1175C162.34 92.4975 161.07 91.0075 159.92 89.4375C158.77 87.8675 157.63 86.2975 156.52 84.7075C154.27 81.4675 152.21 78.1075 149.97 74.8575L150.04 74.7375Z" fill="#263238"/>
<path d="M134.82 86.0175C135.17 86.6975 135.55 87.3675 135.82 88.0675L136.2 88.9375C135.67 86.4475 135.2 83.9375 134.65 81.4475C135.71 85.4475 136.78 89.5375 137.76 93.5975C138.69 97.4775 139.82 101.397 140.36 105.357C141.058 105.052 141.78 104.807 142.52 104.627C141.778 105.108 140.978 105.494 140.14 105.777C138.935 101.751 137.934 97.6654 137.14 93.5375C136.89 92.4175 136.66 91.2975 136.42 90.1775C136.16 89.4975 135.85 88.8475 135.54 88.1775C135.23 87.5075 134.95 86.7575 134.67 86.0475C134.73 86.0075 134.8 85.9675 134.82 86.0175Z" fill="#263238"/>
<path d="M140.93 101.607C144.13 99.8075 157.5 92.8875 160.49 91.6075C160.7 91.5175 160.81 91.6075 160.6 91.7475C154.254 95.4352 147.711 98.7735 141 101.747C140.92 101.767 140.84 101.657 140.93 101.607Z" fill="#263238"/>
<path d="M507.36 364.507H202.68L246.73 114.657H551.41L507.36 364.507Z" fill="#FCA914"/>
<path d="M351.01 88.7775H251.3L246.73 114.657H353.44L351.01 88.7775Z" fill="#FCA914"/>
<g opacity="0.1">
<path d="M507.36 364.507H202.68L246.73 114.657H551.41L507.36 364.507Z" fill="black"/>
<path d="M351.01 88.7775H251.3L246.73 114.657H353.44L351.01 88.7775Z" fill="black"/>
</g>
<path d="M240.54 99.3375C239.873 96.4758 239.873 93.4991 240.54 90.6375C241.207 93.4991 241.207 96.4758 240.54 99.3375Z" fill="#263238"/>
<path d="M231.68 101.897C230.662 100.842 229.785 99.6585 229.07 98.3775C228.321 97.1231 227.733 95.7792 227.32 94.3775C228.342 95.4271 229.219 96.6073 229.93 97.8875C230.678 99.1462 231.266 100.493 231.68 101.897Z" fill="#263238"/>
<path d="M225.28 108.547C222.47 107.693 219.894 106.205 217.75 104.197C219.152 104.605 220.496 105.19 221.75 105.937C223.031 106.657 224.217 107.533 225.28 108.547Z" fill="#263238"/>
<path d="M223.04 117.507C220.179 118.174 217.202 118.174 214.34 117.507C217.202 116.841 220.179 116.841 223.04 117.507Z" fill="#263238"/>
<path d="M225.64 126.367C224.58 127.38 223.397 128.257 222.12 128.977C220.866 129.725 219.522 130.31 218.12 130.717C219.176 129.699 220.359 128.822 221.64 128.107C222.892 127.356 224.237 126.771 225.64 126.367Z" fill="#263238"/>
<path d="M232.28 132.757C231.429 135.572 229.94 138.152 227.93 140.297C228.337 138.894 228.926 137.549 229.68 136.297C230.393 135.012 231.267 133.822 232.28 132.757Z" fill="#263238"/>
<path d="M241.24 134.967C241.589 136.391 241.757 137.852 241.74 139.317C241.762 140.783 241.593 142.245 241.24 143.667C240.882 142.246 240.714 140.783 240.74 139.317C240.723 137.852 240.891 136.391 241.24 134.967Z" fill="#263238"/>
<path d="M250.1 132.457C251.118 133.513 251.996 134.696 252.71 135.977C253.461 137.23 254.046 138.574 254.45 139.977C252.44 137.832 250.951 135.252 250.1 132.437V132.457Z" fill="#263238"/>
<path d="M256.49 125.757C257.894 126.161 259.238 126.746 260.49 127.497C261.771 128.212 262.954 129.089 264.01 130.107C262.607 129.704 261.262 129.119 260.01 128.367C258.729 127.653 257.546 126.776 256.49 125.757Z" fill="#263238"/>
<path d="M258.7 116.797C261.565 116.131 264.545 116.131 267.41 116.797C264.545 117.464 261.565 117.464 258.7 116.797Z" fill="#263238"/>
<path d="M256.14 107.937C257.199 106.925 258.382 106.052 259.66 105.337C260.91 104.579 262.255 103.99 263.66 103.587C261.514 105.598 258.934 107.086 256.12 107.937H256.14Z" fill="#263238"/>
<path d="M249.49 101.547C249.902 100.147 250.486 98.8034 251.23 97.5475C251.945 96.2664 252.822 95.0833 253.84 94.0275C253.437 95.4308 252.852 96.7754 252.1 98.0275C251.386 99.3085 250.508 100.492 249.49 101.547Z" fill="#263238"/>
<path d="M506.91 364.507H201.58L158.22 123.727H463.56L506.91 364.507Z" fill="#FCA914"/>
<path d="M264.03 270.917C271.039 270.917 276.72 265.236 276.72 258.227C276.72 251.219 271.039 245.537 264.03 245.537C257.022 245.537 251.34 251.219 251.34 258.227C251.34 265.236 257.022 270.917 264.03 270.917Z" fill="#263238"/>
<path d="M364.35 270.917C371.359 270.917 377.04 265.236 377.04 258.227C377.04 251.219 371.359 245.537 364.35 245.537C357.342 245.537 351.66 251.219 351.66 258.227C351.66 265.236 357.342 270.917 364.35 270.917Z" fill="#263238"/>
<path d="M332.42 272.947L331.72 271.617C331.66 271.497 325.1 259.377 311.91 259.377C299.91 259.377 296.91 270.787 296.83 271.277L296.47 272.727L293.56 272.027L293.91 270.567C293.91 270.427 297.49 256.377 311.91 256.377C326.91 256.377 334.08 269.657 334.38 270.227L335.08 271.547L332.42 272.947Z" fill="#263238"/>
<path d="M486.75 257.257L486.54 256.257C487.19 256.117 487.83 255.967 488.47 255.797L488.72 256.797C488.04 256.967 487.41 257.117 486.75 257.257Z" fill="#263238"/>
<path d="M492.59 255.647L492.27 254.707C493.52 254.277 494.77 253.807 495.98 253.297L496.37 254.217C495.14 254.737 493.87 255.217 492.59 255.647ZM500.04 252.457L499.59 251.577C500.76 250.967 501.93 250.307 503.04 249.577L503.56 250.427C502.42 251.217 501.23 251.887 500.04 252.457ZM506.92 248.227L506.33 247.417C507.41 246.627 508.45 245.797 509.43 244.947L510.09 245.697C509.04 246.607 508.04 247.457 506.91 248.267L506.92 248.227ZM513.02 242.907L512.29 242.217C513.21 241.217 514.08 240.217 514.88 239.217L515.67 239.827C514.84 240.927 513.95 241.957 513.04 242.947L513.02 242.907ZM517.97 236.507L517.12 235.977C517.811 234.86 518.426 233.698 518.96 232.497L519.88 232.907C519.314 234.159 518.673 235.374 517.96 236.547L517.97 236.507ZM521.28 229.087L520.28 228.807C520.645 227.553 520.916 226.273 521.09 224.977L522.09 225.107C521.924 226.467 521.65 227.812 521.27 229.127L521.28 229.087ZM522.39 221.087H521.39V220.797C521.39 219.587 521.32 218.357 521.2 217.147L522.2 217.047C522.331 218.293 522.398 219.545 522.4 220.797L522.39 221.087ZM520.59 213.257C520.321 211.968 519.987 210.693 519.59 209.437L520.59 209.137C521 210.437 521.35 211.757 521.59 213.047L520.59 213.257ZM518.22 205.727C517.74 204.547 517.22 203.337 516.58 202.117L517.48 201.667C518.09 202.907 518.65 204.147 519.14 205.347L518.22 205.727ZM514.72 198.597C514.1 197.507 513.42 196.357 512.72 195.177L513.57 194.647C514.3 195.837 514.99 196.997 515.57 198.107L514.72 198.597ZM510.54 191.807C509.81 190.707 509.07 189.597 508.31 188.487L509.14 187.927C509.9 189.037 510.64 190.147 511.37 191.267L510.54 191.807ZM506.04 185.187C505.29 184.087 504.53 182.977 503.79 181.877L504.62 181.317C505.36 182.417 506.11 183.527 506.86 184.617L506.04 185.187ZM501.57 178.527C500.84 177.407 500.13 176.267 499.43 175.127L500.28 174.607C500.98 175.747 501.69 176.867 502.41 177.987L501.57 178.527ZM497.4 171.657C496.72 170.447 496.09 169.247 495.52 168.097L496.42 167.647C496.98 168.787 497.61 169.967 498.27 171.167L497.4 171.657ZM493.85 164.457C493.32 163.207 492.85 161.937 492.41 160.697L493.41 160.377C493.83 161.587 494.3 162.837 494.82 164.067L493.85 164.457ZM491.25 156.827C490.92 155.527 490.63 154.197 490.41 152.827L491.41 152.667C491.63 153.947 491.9 155.247 492.23 156.527L491.25 156.827ZM489.91 148.827C489.81 147.597 489.76 146.357 489.76 145.117V144.787H490.76V145.107C490.76 146.317 490.76 147.537 490.91 148.737L489.91 148.827ZM490.91 140.827L489.91 140.727C489.91 140.457 489.96 140.177 489.99 139.887C490.11 138.817 490.26 137.747 490.44 136.727L491.44 136.897C491.27 137.897 491.12 138.947 491 139.997C491.04 140.307 491.04 140.577 490.96 140.857L490.91 140.827ZM492.3 133.047L491.3 132.777C491.67 131.457 492.1 130.167 492.58 128.937L493.51 129.297C493.055 130.536 492.668 131.797 492.35 133.077L492.3 133.047ZM542.13 127.217C541.57 127.217 540.99 127.137 540.42 127.057C539.64 126.947 538.86 126.817 538.09 126.667L538.29 125.667C539.03 125.807 539.8 125.937 540.56 126.047C541.1 126.117 541.65 126.167 542.18 126.197L542.13 127.217ZM546.24 126.907L546.03 125.907C547.285 125.648 548.488 125.182 549.59 124.527L550.11 125.377C548.932 126.106 547.641 126.634 546.29 126.937L546.24 126.907ZM495.18 125.717L494.29 125.247C494.927 124.055 495.631 122.9 496.4 121.787L497.22 122.357C496.489 123.446 495.824 124.579 495.23 125.747L495.18 125.717ZM534.18 125.657C532.889 125.248 531.62 124.771 530.38 124.227L530.79 123.307C531.992 123.842 533.224 124.306 534.48 124.697L534.18 125.657ZM553.18 122.537L552.35 121.977C553.062 120.944 553.483 119.739 553.57 118.487L554.57 118.557C554.485 119.992 554.015 121.377 553.21 122.567L553.18 122.537ZM526.78 122.387C525.61 121.707 524.478 120.963 523.39 120.157L523.98 119.357C525.039 120.138 526.14 120.86 527.28 121.517L526.78 122.387ZM499.68 119.267L498.94 118.597C499.845 117.59 500.81 116.639 501.83 115.747L502.49 116.497C501.509 117.375 500.58 118.31 499.71 119.297L499.68 119.267ZM520.27 117.577C519.274 116.66 518.329 115.689 517.44 114.667L518.19 114.007C519.055 114.999 519.973 115.944 520.94 116.837L520.27 117.577ZM552.82 114.867C552.247 113.725 551.455 112.705 550.49 111.867L551.15 111.117C552.212 112.037 553.085 113.154 553.72 114.407L552.82 114.867ZM505.6 114.077L505.03 113.257C506.149 112.494 507.307 111.789 508.5 111.147L508.97 112.027C507.821 112.662 506.706 113.357 505.63 114.107L505.6 114.077ZM514.94 111.477C514.56 110.937 514.19 110.387 513.84 109.817L512.54 110.327L512.16 109.407L513.31 108.947C513.13 108.647 512.95 108.347 512.78 108.047L513.65 107.557C513.85 107.907 514.05 108.257 514.26 108.557C514.82 108.357 515.39 108.167 515.97 107.987L516.26 108.987C515.77 109.137 515.26 109.297 514.8 109.467C515.11 109.957 515.43 110.467 515.8 110.897L514.94 111.477ZM547.27 109.757C546.302 109.275 545.299 108.867 544.27 108.537L543.61 108.327L543.9 107.327L544.58 107.547C545.651 107.889 546.694 108.314 547.7 108.817L547.27 109.757ZM520.09 107.967L519.88 106.967C521.17 106.677 522.51 106.437 523.88 106.247L524.03 107.247C522.71 107.457 521.4 107.707 520.12 107.997L520.09 107.967ZM539.79 107.427C538.54 107.207 537.22 107.037 535.87 106.917L535.95 105.917C537.34 106.037 538.69 106.207 539.95 106.437L539.79 107.427ZM527.94 106.847L527.87 105.847C529.06 105.777 530.25 105.737 531.43 105.737H531.92V106.737H531.44C530.31 106.767 529.13 106.797 527.97 106.877L527.94 106.847ZM511.04 104.457C510.5 103.237 510.04 101.967 509.59 100.677L510.59 100.367C511.01 101.627 511.48 102.867 512 104.057L511.04 104.457ZM508.51 96.7775C508.21 95.4875 507.96 94.1475 507.77 92.7775L508.77 92.6375C508.96 93.9575 509.2 95.2675 509.49 96.5375L508.51 96.7775ZM507.39 88.7775C507.34 87.8775 507.31 86.9575 507.31 86.0375C507.31 85.6075 507.31 85.1675 507.31 84.7375H508.31C508.31 85.1675 508.31 85.5875 508.31 86.0175C508.31 86.9175 508.31 87.8275 508.38 88.6975L507.39 88.7775ZM508.58 80.7775L507.58 80.6775C507.72 79.3575 507.91 78.0075 508.14 76.6775L509.14 76.8475C508.87 78.1775 508.68 79.4575 508.55 80.7975L508.58 80.7775ZM509.95 72.9675L508.95 72.7275C509.27 71.4375 509.64 70.1375 510.05 68.8375L511.05 69.1475C510.6 70.4575 510.23 71.7275 509.92 72.9875L509.95 72.9675ZM512.35 65.3975L511.42 65.0375C511.91 63.7875 512.42 62.5375 513.03 61.3275L513.93 61.7675C513.33 62.9675 512.8 64.1875 512.32 65.4575L512.35 65.3975ZM515.79 58.2675L514.92 57.7575C515.6 56.6075 516.33 55.4575 517.09 54.3575L517.91 54.9275C517.13 56.0275 516.42 57.1475 515.76 58.2875L515.79 58.2675ZM520.3 51.7575L519.52 51.1275C520.36 50.1275 521.26 49.0675 522.19 48.1275L522.91 48.8175C521.97 49.7575 521.09 50.7575 520.27 51.7775L520.3 51.7575ZM525.74 45.9975L525.07 45.2575C526.07 44.3675 527.07 43.4875 528.14 42.6375L528.76 43.4275C527.69 44.2775 526.67 45.1475 525.71 46.0175L525.74 45.9975ZM531.95 41.0575L531.38 40.2275C532.47 39.4775 533.61 38.7375 534.77 38.0375L535.28 38.8875C534.12 39.5975 533.04 40.3275 531.92 41.0775L531.95 41.0575ZM538.74 36.9275L538.27 36.0475C539.45 35.4175 540.67 34.8175 541.89 34.2575L542.31 35.1675C541.04 35.7375 539.87 36.3375 538.71 36.9475L538.74 36.9275ZM545.97 33.6075L545.6 32.6675C546.86 32.1775 548.13 31.6675 549.39 31.2975L549.71 32.2975C548.44 32.6775 547.18 33.1375 545.94 33.6275L545.97 33.6075Z" fill="#263238"/>
<path d="M553.68 31.0775L553.43 30.0775C554.67 29.7575 555.43 29.6175 555.43 29.6175L555.61 30.6175C555.61 30.6175 554.89 30.7675 553.68 31.0775Z" fill="#263238"/>
<path d="M571.36 24.6175C568.81 16.7175 551.73 19.5575 555.06 29.8875C558.39 40.2175 573.91 32.5275 571.36 24.6175Z" fill="#263238"/>
<path d="M545.77 21.4575C545.9 17.9875 550.72 15.3175 557.54 16.5475C564.36 17.7775 570.77 22.3775 570.77 22.3775C570.77 22.3775 564.04 26.4575 557.15 27.2075C550.26 27.9575 545.64 24.9175 545.77 21.4575Z" fill="#EBEBEB"/>
<path d="M570.77 22.3575C567.23 22.3575 563.7 22.2575 560.17 22.1475C556.64 22.0375 553.1 21.8575 549.57 21.5775C553.11 21.5775 556.65 21.6675 560.18 21.7775C563.71 21.8875 567.25 22.0675 570.77 22.3575Z" fill="#263238"/>
<path d="M552.62 18.3675C554.63 19.3289 556.525 20.513 558.27 21.8975C557.264 21.4255 556.289 20.8912 555.35 20.2975C554.403 19.7078 553.492 19.0634 552.62 18.3675Z" fill="#263238"/>
<path d="M561.89 22.0275C560.081 23.4936 558.12 24.7609 556.04 25.8075C557.858 24.3395 559.83 23.0722 561.92 22.0275H561.89Z" fill="#263238"/>
<path d="M562.92 20.0775C563.929 20.562 564.812 21.274 565.5 22.1574C564.995 21.9193 564.522 21.6204 564.09 21.2674C563.656 20.9167 563.263 20.5174 562.92 20.0775Z" fill="#263238"/>
<path d="M552.27 42.0075C554.4 44.7475 559.87 44.0875 564.68 39.1075C569.49 34.1275 572.04 26.6375 572.04 26.6375C572.04 26.6375 564.16 27.2375 558.15 30.6375C552.14 34.0375 550.13 39.2575 552.27 42.0075Z" fill="#EBEBEB"/>
<path d="M572.04 26.6375C569.16 28.6375 566.36 30.8575 563.55 33.0075C560.74 35.1575 557.99 37.3774 555.3 39.6674C558.18 37.6674 560.98 35.4574 563.78 33.3074C566.58 31.1574 569.31 28.9375 572.04 26.6375Z" fill="#263238"/>
<path d="M559.62 40.4575C560.155 39.4861 560.632 38.4844 561.05 37.4575C561.476 36.4277 561.836 35.3723 562.13 34.2975C561.594 35.268 561.116 36.2698 560.7 37.2975C560.279 38.3288 559.918 39.3839 559.62 40.4575Z" fill="#263238"/>
<path d="M565.04 32.0975C562.7 31.9724 560.354 32.0964 558.04 32.4675C559.206 32.5374 560.374 32.5374 561.54 32.4675C562.713 32.4103 563.881 32.2867 565.04 32.0975Z" fill="#263238"/>
<path d="M566.97 33.0874C567.237 32.5936 567.446 32.07 567.59 31.5274C567.738 30.9889 567.825 30.4354 567.85 29.8774C567.319 30.8674 567.018 31.9648 566.97 33.0874Z" fill="#263238"/>
<path d="M571.36 24.6174C570.795 24.8008 570.189 24.8125 569.618 24.651C569.046 24.4894 568.536 24.162 568.15 23.71C567.765 23.2581 567.523 22.7021 567.454 22.1123C567.385 21.5225 567.493 20.9256 567.763 20.397C568.034 19.8685 568.455 19.4321 568.974 19.1432C569.493 18.8543 570.085 18.7258 570.677 18.774C571.269 18.8222 571.833 19.045 572.298 19.4141C572.764 19.7832 573.109 20.2821 573.29 20.8474C573.533 21.6033 573.466 22.4245 573.104 23.1312C572.742 23.8378 572.115 24.3723 571.36 24.6174Z" fill="#455A64"/>
<path d="M573.2 30.3275C572.636 30.5101 572.03 30.5213 571.459 30.3596C570.888 30.198 570.378 29.8707 569.993 29.4192C569.608 28.9677 569.366 28.4122 569.297 27.823C569.228 27.2338 569.335 26.6373 569.605 26.109C569.874 25.5806 570.295 25.1441 570.812 24.8546C571.33 24.5651 571.922 24.4356 572.514 24.4826C573.105 24.5295 573.669 24.7507 574.135 25.1183C574.601 25.4858 574.947 25.9832 575.13 26.5475C575.252 26.9224 575.298 27.3176 575.267 27.7105C575.236 28.1034 575.127 28.4863 574.948 28.8374C574.769 29.1884 574.522 29.5007 574.222 29.7564C573.922 30.0121 573.575 30.2061 573.2 30.3275Z" fill="#455A64"/>
<path d="M245.35 27.7775C244.871 32.3706 243.125 36.7403 240.306 40.3988C237.488 44.0573 233.709 46.8608 229.39 48.4964C225.072 50.132 220.383 50.5354 215.849 49.6615C211.314 48.7876 207.111 46.6709 203.71 43.5474L191.24 45.3774L197.48 34.5975C196.053 31.0898 195.444 27.3031 195.699 23.525C195.955 19.7469 197.068 16.0766 198.955 12.7931C200.841 9.50965 203.451 6.69922 206.586 4.57536C209.721 2.45149 213.299 1.07003 217.048 0.535927C220.797 0.00182122 224.618 0.329116 228.222 1.49294C231.825 2.65677 235.116 4.62652 237.844 7.25258C240.573 9.87863 242.666 13.0919 243.967 16.6484C245.267 20.2048 245.74 24.0109 245.35 27.7775Z" fill="white"/>
<path d="M245.35 27.7774C244.881 32.3682 243.15 36.7396 240.35 40.4074C238.982 42.2625 237.332 43.8922 235.46 45.2374C233.629 46.6331 231.609 47.7611 229.46 48.5874C227.31 49.4342 225.051 49.9728 222.75 50.1875C221.6 50.2907 220.444 50.3141 219.29 50.2575C218.132 50.2277 216.979 50.1073 215.84 49.8974C211.244 49.0519 206.975 46.9431 203.51 43.8074L203.8 43.8974L191.35 45.8074L190.44 45.9474L190.9 45.1474L197.1 34.3474V34.7774C195.637 31.2051 195.015 27.3441 195.282 23.493C195.549 19.6419 196.698 15.9037 198.64 12.5674C200.58 9.24165 203.246 6.39741 206.44 4.24745C209.629 2.12603 213.256 0.754093 217.051 0.234531C220.845 -0.285031 224.708 0.061263 228.35 1.24745C231.953 2.47323 235.236 4.48907 237.96 7.14745C240.677 9.79919 242.755 13.0351 244.036 16.6096C245.316 20.1841 245.766 24.0033 245.35 27.7774ZM245.35 27.7774C245.754 24.0219 245.29 20.2238 243.993 16.6762C242.696 13.1287 240.601 9.92663 237.87 7.31732C235.139 4.70802 231.844 2.76125 228.242 1.62731C224.639 0.493368 220.823 0.202596 217.09 0.777446C213.394 1.32447 209.874 2.71356 206.8 4.83744C203.753 6.97802 201.207 9.75549 199.34 12.9774C197.501 16.2065 196.418 19.8099 196.17 23.5174C195.926 27.2501 196.528 30.9895 197.93 34.4574L198.02 34.6774L197.9 34.8874L191.62 45.6474L191.18 44.9874L203.66 43.2374H203.83L203.95 43.3474C207.286 46.4525 211.42 48.568 215.89 49.4574C217.004 49.6844 218.134 49.8215 219.27 49.8675C220.405 49.9474 221.545 49.9474 222.68 49.8675C224.957 49.684 227.198 49.1894 229.34 48.3974C231.487 47.6157 233.509 46.5241 235.34 45.1574C237.204 43.8231 238.856 42.2149 240.24 40.3874C243.076 36.7374 244.845 32.3724 245.35 27.7774Z" fill="#263238"/>
<path d="M208.38 36.8074C208.361 36.4764 208.41 36.1449 208.524 35.8336C208.638 35.5222 208.815 35.2377 209.044 34.9977C209.273 34.7576 209.549 34.5671 209.854 34.4381C210.16 34.309 210.488 34.2441 210.82 34.2474C211.499 34.2474 212.15 34.5172 212.63 34.9972C213.11 35.4773 213.38 36.1285 213.38 36.8074C213.38 37.4864 213.11 38.1375 212.63 38.6176C212.15 39.0977 211.499 39.3674 210.82 39.3674C210.488 39.3707 210.16 39.3058 209.854 39.1768C209.549 39.0477 209.273 38.8573 209.044 38.6172C208.815 38.3771 208.638 38.0926 208.524 37.7813C208.41 37.47 208.361 37.1385 208.38 36.8074ZM209.38 30.8974L208.8 11.0574H212.8L212.22 30.8974H209.38Z" fill="#FCA914"/>
<path d="M217.89 36.8074C217.871 36.4772 217.919 36.1466 218.033 35.8359C218.147 35.5253 218.323 35.2412 218.551 35.0013C218.778 34.7614 219.053 34.5708 219.357 34.4411C219.661 34.3114 219.989 34.2455 220.32 34.2474C220.999 34.2474 221.65 34.5172 222.13 34.9972C222.61 35.4773 222.88 36.1285 222.88 36.8074C222.88 37.4864 222.61 38.1375 222.13 38.6176C221.65 39.0977 220.999 39.3674 220.32 39.3674C219.989 39.3694 219.661 39.3035 219.357 39.1738C219.053 39.0441 218.778 38.8534 218.551 38.6135C218.323 38.3736 218.147 38.0896 218.033 37.7789C217.919 37.4683 217.871 37.1377 217.89 36.8074ZM218.89 30.8974L218.34 11.0574H222.34L221.76 30.8974H218.89Z" fill="#FCA914"/>
<path d="M227.39 36.8074C227.371 36.4764 227.42 36.1449 227.534 35.8336C227.648 35.5222 227.825 35.2377 228.054 34.9977C228.283 34.7576 228.558 34.5671 228.864 34.4381C229.169 34.309 229.498 34.2441 229.83 34.2474C230.509 34.2474 231.16 34.5172 231.64 34.9972C232.12 35.4773 232.39 36.1285 232.39 36.8074C232.39 37.4864 232.12 38.1375 231.64 38.6176C231.16 39.0977 230.509 39.3674 229.83 39.3674C229.498 39.3707 229.169 39.3058 228.864 39.1768C228.558 39.0477 228.283 38.8573 228.054 38.6172C227.825 38.3771 227.648 38.0926 227.534 37.7813C227.42 37.47 227.371 37.1385 227.39 36.8074ZM228.39 30.8974L227.81 11.0574H231.81L231.24 30.8974H228.39Z" fill="#FCA914"/>
</g>
<path d="M149.88 174H160.44V175.4H156V188H154.32V175.4H149.88V174ZM163.292 188H161.612V178H163.292V188ZM163.472 174.88V175.04C163.472 175.293 163.459 175.453 163.432 175.52C163.419 175.587 163.359 175.667 163.252 175.76C163.145 175.867 162.899 175.92 162.512 175.92H162.412C162.119 175.92 161.939 175.913 161.872 175.9C161.805 175.887 161.725 175.84 161.632 175.76C161.539 175.667 161.479 175.587 161.452 175.52C161.439 175.453 161.432 175.293 161.432 175.04V174.88C161.432 174.627 161.439 174.467 161.452 174.4C161.479 174.333 161.545 174.253 161.652 174.16C161.732 174.08 161.805 174.033 161.872 174.02C161.939 174.007 162.119 174 162.412 174H162.492C162.892 174 163.152 174.053 163.272 174.16C163.365 174.253 163.419 174.333 163.432 174.4C163.459 174.467 163.472 174.627 163.472 174.88ZM173.55 178.96H173.63C173.644 178.84 173.77 178.693 174.01 178.52L174.31 178.3C174.55 178.153 174.71 178.067 174.79 178.04C174.884 178.013 175.05 178 175.29 178H178.47C178.79 178 179.11 178.133 179.43 178.4L179.91 178.8C180.23 179.067 180.39 179.4 180.39 179.8V188H178.71V180.22C178.71 180.02 178.697 179.893 178.67 179.84C178.657 179.773 178.59 179.693 178.47 179.6C178.35 179.507 178.257 179.453 178.19 179.44C178.124 179.413 177.97 179.4 177.73 179.4H175.53C175.29 179.4 175.124 179.413 175.03 179.44C174.95 179.467 174.79 179.553 174.55 179.7C174.244 179.887 174.084 180.06 174.07 180.22V188H172.39V180.22C172.39 180.02 172.377 179.893 172.35 179.84C172.337 179.773 172.27 179.693 172.15 179.6C172.03 179.507 171.937 179.453 171.87 179.44C171.804 179.413 171.65 179.4 171.41 179.4H169.39C169.15 179.4 168.984 179.413 168.89 179.44C168.81 179.467 168.65 179.553 168.41 179.7C168.17 179.847 168.03 179.953 167.99 180.02C167.95 180.087 167.93 180.22 167.93 180.42V188H166.25V180.22C166.25 180.02 166.237 179.893 166.21 179.84C166.197 179.773 166.13 179.693 166.01 179.6C165.89 179.507 165.817 179.433 165.79 179.38C165.777 179.313 165.77 179.18 165.77 178.98V178H166.47C166.71 178 166.87 178.02 166.95 178.06C167.044 178.087 167.17 178.167 167.33 178.3C167.544 178.473 167.65 178.64 167.65 178.8H167.73C167.73 178.64 167.877 178.473 168.17 178.3C168.41 178.153 168.57 178.067 168.65 178.04C168.744 178.013 168.91 178 169.15 178H172.15C172.47 178 172.79 178.133 173.11 178.4C173.39 178.653 173.537 178.84 173.55 178.96ZM190.302 186.2L191.502 187.2L191.022 187.6C190.782 187.8 190.615 187.92 190.522 187.96C190.442 187.987 190.282 188 190.042 188H184.702C184.382 188 184.062 187.867 183.742 187.6L183.262 187.2C182.942 186.933 182.782 186.6 182.782 186.2V179.8C182.782 179.4 182.942 179.067 183.262 178.8L183.742 178.4C184.062 178.133 184.382 178 184.702 178H189.362C189.629 178 189.949 178.133 190.322 178.4L190.822 178.8C191.142 179.04 191.302 179.373 191.302 179.8V183.9H184.462V185.78C184.462 185.98 184.469 186.113 184.482 186.18C184.509 186.233 184.582 186.307 184.702 186.4C184.822 186.493 184.915 186.553 184.982 186.58C185.049 186.593 185.202 186.6 185.442 186.6H189.322C189.562 186.6 189.722 186.587 189.802 186.56C189.895 186.52 190.062 186.4 190.302 186.2ZM189.622 182.6V180.22C189.622 180.02 189.609 179.893 189.582 179.84C189.569 179.773 189.502 179.693 189.382 179.6C189.262 179.507 189.169 179.453 189.102 179.44C189.035 179.413 188.882 179.4 188.642 179.4H185.442C185.202 179.4 185.049 179.413 184.982 179.44C184.915 179.453 184.822 179.507 184.702 179.6C184.582 179.693 184.509 179.773 184.482 179.84C184.469 179.893 184.462 180.02 184.462 180.22V182.6H189.622ZM205.06 182.2C205.38 182.2 205.7 182.333 206.02 182.6L206.5 183C206.82 183.267 206.98 183.6 206.98 184V186.2C206.98 186.6 206.82 186.933 206.5 187.2L206.02 187.6C205.7 187.867 205.38 188 205.06 188H200.62C200.3 188 199.98 187.867 199.66 187.6L199.18 187.2C198.86 186.933 198.7 186.6 198.7 186.2V185.4H200.38V185.78C200.38 185.98 200.387 186.113 200.4 186.18C200.427 186.233 200.5 186.307 200.62 186.4C200.74 186.493 200.833 186.553 200.9 186.58C200.967 186.593 201.12 186.6 201.36 186.6H204.32C204.56 186.6 204.713 186.593 204.78 186.58C204.847 186.553 204.94 186.493 205.06 186.4C205.18 186.307 205.247 186.233 205.26 186.18C205.287 186.113 205.3 185.98 205.3 185.78V184.16C205.287 184.053 205.207 183.933 205.06 183.8C204.94 183.707 204.847 183.653 204.78 183.64C204.713 183.613 204.56 183.6 204.32 183.6H200.82C200.5 183.6 200.18 183.467 199.86 183.2L199.38 182.8C199.06 182.533 198.9 182.2 198.9 181.8V179.8C198.9 179.4 199.06 179.067 199.38 178.8L199.86 178.4C200.18 178.133 200.5 178 200.82 178H205.06C205.38 178 205.7 178.133 206.02 178.4L206.5 178.8C206.82 179.067 206.98 179.4 206.98 179.8V180.6H205.3V180.22C205.3 180.02 205.287 179.893 205.26 179.84C205.247 179.773 205.18 179.693 205.06 179.6C204.94 179.507 204.847 179.453 204.78 179.44C204.713 179.413 204.56 179.4 204.32 179.4H201.56C201.32 179.4 201.167 179.413 201.1 179.44C201.033 179.453 200.94 179.507 200.82 179.6C200.7 179.693 200.627 179.773 200.6 179.84C200.587 179.893 200.58 180.02 200.58 180.22V181.38C200.58 181.58 200.587 181.713 200.6 181.78C200.627 181.833 200.7 181.907 200.82 182C200.94 182.093 201.033 182.153 201.1 182.18C201.167 182.193 201.32 182.2 201.56 182.2H205.06ZM216.904 186.2L218.104 187.2L217.624 187.6C217.384 187.8 217.217 187.92 217.124 187.96C217.044 187.987 216.884 188 216.644 188H211.304C210.984 188 210.664 187.867 210.344 187.6L209.864 187.2C209.544 186.933 209.384 186.6 209.384 186.2V179.8C209.384 179.4 209.544 179.067 209.864 178.8L210.344 178.4C210.664 178.133 210.984 178 211.304 178H215.964C216.23 178 216.55 178.133 216.924 178.4L217.424 178.8C217.744 179.04 217.904 179.373 217.904 179.8V183.9H211.064V185.78C211.064 185.98 211.07 186.113 211.084 186.18C211.11 186.233 211.184 186.307 211.304 186.4C211.424 186.493 211.517 186.553 211.584 186.58C211.65 186.593 211.804 186.6 212.044 186.6H215.924C216.164 186.6 216.324 186.587 216.404 186.56C216.497 186.52 216.664 186.4 216.904 186.2ZM216.224 182.6V180.22C216.224 180.02 216.21 179.893 216.184 179.84C216.17 179.773 216.104 179.693 215.984 179.6C215.864 179.507 215.77 179.453 215.704 179.44C215.637 179.413 215.484 179.4 215.244 179.4H212.044C211.804 179.4 211.65 179.413 211.584 179.44C211.517 179.453 211.424 179.507 211.304 179.6C211.184 179.693 211.11 179.773 211.084 179.84C211.07 179.893 211.064 180.02 211.064 180.22V182.6H216.224ZM228.082 178.96H228.162C228.175 178.84 228.302 178.693 228.542 178.52L228.842 178.3C229.082 178.153 229.242 178.067 229.322 178.04C229.415 178.013 229.582 178 229.822 178H233.002C233.322 178 233.642 178.133 233.962 178.4L234.442 178.8C234.762 179.067 234.922 179.4 234.922 179.8V188H233.242V180.22C233.242 180.02 233.228 179.893 233.202 179.84C233.188 179.773 233.122 179.693 233.002 179.6C232.882 179.507 232.788 179.453 232.722 179.44C232.655 179.413 232.502 179.4 232.262 179.4H230.062C229.822 179.4 229.655 179.413 229.562 179.44C229.482 179.467 229.322 179.553 229.082 179.7C228.775 179.887 228.615 180.06 228.602 180.22V188H226.922V180.22C226.922 180.02 226.908 179.893 226.882 179.84C226.868 179.773 226.802 179.693 226.682 179.6C226.562 179.507 226.468 179.453 226.402 179.44C226.335 179.413 226.182 179.4 225.942 179.4H223.922C223.682 179.4 223.515 179.413 223.422 179.44C223.342 179.467 223.182 179.553 222.942 179.7C222.702 179.847 222.562 179.953 222.522 180.02C222.482 180.087 222.462 180.22 222.462 180.42V188H220.782V180.22C220.782 180.02 220.768 179.893 220.742 179.84C220.728 179.773 220.662 179.693 220.542 179.6C220.422 179.507 220.348 179.433 220.322 179.38C220.308 179.313 220.302 179.18 220.302 178.98V178H221.002C221.242 178 221.402 178.02 221.482 178.06C221.575 178.087 221.702 178.167 221.862 178.3C222.075 178.473 222.182 178.64 222.182 178.8H222.262C222.262 178.64 222.408 178.473 222.702 178.3C222.942 178.153 223.102 178.067 223.182 178.04C223.275 178.013 223.442 178 223.682 178H226.682C227.002 178 227.322 178.133 227.642 178.4C227.922 178.653 228.068 178.84 228.082 178.96ZM244.013 178V190.2C244.013 190.6 243.853 190.933 243.533 191.2L243.053 191.6C242.733 191.867 242.413 192 242.093 192H241.013V191.48C241.013 191.173 241.033 190.98 241.073 190.9C241.1 190.833 241.2 190.733 241.373 190.6C241.627 190.6 241.78 190.593 241.833 190.58C241.887 190.567 241.973 190.507 242.093 190.4C242.213 190.307 242.28 190.227 242.293 190.16C242.32 190.107 242.333 189.98 242.333 189.78V178H244.013ZM244.173 174.88V175.04C244.173 175.293 244.16 175.453 244.133 175.52C244.12 175.587 244.06 175.667 243.953 175.76C243.847 175.867 243.6 175.92 243.213 175.92H243.113C242.82 175.92 242.64 175.913 242.573 175.9C242.507 175.887 242.427 175.84 242.333 175.76C242.24 175.667 242.18 175.587 242.153 175.52C242.14 175.453 242.133 175.293 242.133 175.04V174.88C242.133 174.627 242.14 174.467 242.153 174.4C242.18 174.333 242.247 174.253 242.353 174.16C242.433 174.08 242.507 174.033 242.573 174.02C242.64 174.007 242.82 174 243.113 174H243.193C243.593 174 243.853 174.053 243.973 174.16C244.067 174.253 244.12 174.333 244.133 174.4C244.16 174.467 244.173 174.627 244.173 174.88ZM248.355 178H253.155C253.475 178 253.795 178.133 254.115 178.4L254.595 178.8C254.915 179.067 255.075 179.4 255.075 179.8V186.2C255.075 186.6 254.915 186.933 254.595 187.2L254.115 187.6C253.795 187.867 253.475 188 253.155 188H248.355C248.035 188 247.715 187.867 247.395 187.6L246.915 187.2C246.595 186.933 246.435 186.6 246.435 186.2V179.8C246.435 179.4 246.595 179.067 246.915 178.8L247.395 178.4C247.715 178.133 248.035 178 248.355 178ZM253.395 185.78V180.22C253.395 180.02 253.382 179.893 253.355 179.84C253.342 179.773 253.275 179.693 253.155 179.6C253.035 179.507 252.942 179.453 252.875 179.44C252.808 179.413 252.655 179.4 252.415 179.4H249.095C248.855 179.4 248.702 179.413 248.635 179.44C248.568 179.453 248.475 179.507 248.355 179.6C248.235 179.693 248.162 179.773 248.135 179.84C248.122 179.893 248.115 180.02 248.115 180.22V185.78C248.115 185.98 248.122 186.113 248.135 186.18C248.162 186.233 248.235 186.307 248.355 186.4C248.475 186.493 248.568 186.553 248.635 186.58C248.702 186.593 248.855 186.6 249.095 186.6H252.415C252.655 186.6 252.808 186.593 252.875 186.58C252.942 186.553 253.035 186.493 253.155 186.4C253.275 186.307 253.342 186.233 253.355 186.18C253.382 186.113 253.395 185.98 253.395 185.78ZM260.149 186.6H263.009C263.329 186.6 263.649 186.467 263.969 186.2C264.289 185.933 264.449 185.667 264.449 185.4V180.42C264.449 180.22 264.429 180.087 264.389 180.02C264.349 179.953 264.209 179.847 263.969 179.7C263.729 179.553 263.562 179.467 263.469 179.44C263.389 179.413 263.229 179.4 262.989 179.4H260.149C259.909 179.4 259.756 179.413 259.689 179.44C259.622 179.453 259.529 179.507 259.409 179.6C259.289 179.693 259.216 179.773 259.189 179.84C259.176 179.893 259.169 180.02 259.169 180.22V185.78C259.169 185.98 259.176 186.113 259.189 186.18C259.216 186.233 259.289 186.307 259.409 186.4C259.529 186.493 259.622 186.553 259.689 186.58C259.756 186.593 259.909 186.6 260.149 186.6ZM258.729 191.8H263.469C263.709 191.8 263.862 191.787 263.929 191.76C263.996 191.747 264.089 191.693 264.209 191.6C264.329 191.507 264.396 191.427 264.409 191.36C264.436 191.307 264.449 191.18 264.449 190.98V187.04H264.369C264.342 187.16 264.182 187.347 263.889 187.6C263.569 187.867 263.249 188 262.929 188H259.409C259.089 188 258.769 187.867 258.449 187.6L257.969 187.2C257.649 186.933 257.489 186.6 257.489 186.2V179.8C257.489 179.4 257.649 179.067 257.969 178.8L258.449 178.4C258.769 178.133 259.089 178 259.409 178H263.229C263.469 178 263.629 178.013 263.709 178.04C263.802 178.067 263.969 178.153 264.209 178.3C264.502 178.473 264.649 178.64 264.649 178.8H264.729C264.729 178.64 264.836 178.473 265.049 178.3C265.209 178.167 265.329 178.087 265.409 178.06C265.502 178.02 265.669 178 265.909 178H266.609V178.98C266.609 179.18 266.596 179.313 266.569 179.38C266.556 179.433 266.489 179.507 266.369 179.6C266.249 179.693 266.176 179.773 266.149 179.84C266.136 179.893 266.129 180.02 266.129 180.22V191.4C266.129 191.8 265.969 192.133 265.649 192.4L265.169 192.8C264.849 193.067 264.529 193.2 264.209 193.2H258.369V192.68C258.369 192.373 258.382 192.18 258.409 192.1C258.449 192.033 258.556 191.933 258.729 191.8ZM276.053 187.2H275.973C275.973 187.36 275.826 187.527 275.533 187.7C275.293 187.847 275.126 187.933 275.033 187.96C274.953 187.987 274.793 188 274.553 188H271.133C270.813 188 270.493 187.867 270.173 187.6L269.693 187.2C269.373 186.933 269.213 186.6 269.213 186.2V183.8C269.213 183.4 269.373 183.067 269.693 182.8L270.173 182.4C270.493 182.133 270.813 182 271.133 182H274.713C274.966 182 275.126 182.013 275.193 182.04C275.259 182.053 275.346 182.107 275.453 182.2C275.613 182.333 275.693 182.467 275.693 182.6H275.773V180.22C275.773 180.02 275.759 179.893 275.733 179.84C275.719 179.773 275.653 179.693 275.533 179.6C275.413 179.507 275.319 179.453 275.253 179.44C275.186 179.413 275.033 179.4 274.793 179.4H271.553C271.313 179.4 271.146 179.42 271.053 179.46C270.973 179.487 270.813 179.6 270.573 179.8L269.373 178.8L269.853 178.4C270.093 178.2 270.253 178.087 270.333 178.06C270.426 178.02 270.593 178 270.833 178H275.533C275.853 178 276.173 178.133 276.493 178.4L276.973 178.8C277.293 179.067 277.453 179.4 277.453 179.8V185.78C277.453 185.98 277.459 186.113 277.473 186.18C277.499 186.233 277.573 186.307 277.693 186.4C277.813 186.493 277.879 186.573 277.893 186.64C277.919 186.693 277.933 186.82 277.933 187.02V188H277.233C276.993 188 276.826 187.987 276.733 187.96C276.653 187.92 276.533 187.833 276.373 187.7C276.159 187.527 276.053 187.36 276.053 187.2ZM270.893 184.22V185.78C270.893 185.98 270.899 186.113 270.913 186.18C270.939 186.233 271.013 186.307 271.133 186.4C271.253 186.493 271.346 186.553 271.413 186.58C271.479 186.593 271.633 186.6 271.873 186.6H274.313C274.553 186.6 274.713 186.587 274.793 186.56C274.886 186.533 275.053 186.447 275.293 186.3C275.533 186.153 275.673 186.047 275.713 185.98C275.753 185.913 275.773 185.78 275.773 185.58V184.22C275.773 184.02 275.759 183.893 275.733 183.84C275.719 183.773 275.653 183.693 275.533 183.6C275.413 183.507 275.319 183.453 275.253 183.44C275.186 183.413 275.033 183.4 274.793 183.4H271.873C271.633 183.4 271.479 183.413 271.413 183.44C271.346 183.453 271.253 183.507 271.133 183.6C271.013 183.693 270.939 183.773 270.913 183.84C270.899 183.893 270.893 184.02 270.893 184.22ZM285.861 179.4H283.001C282.761 179.4 282.607 179.413 282.541 179.44C282.474 179.453 282.381 179.507 282.261 179.6C282.141 179.693 282.067 179.773 282.041 179.84C282.027 179.893 282.021 180.02 282.021 180.22V185.78C282.021 185.98 282.027 186.113 282.041 186.18C282.067 186.233 282.141 186.307 282.261 186.4C282.381 186.493 282.474 186.553 282.541 186.58C282.607 186.593 282.761 186.6 283.001 186.6H285.841C286.081 186.6 286.241 186.587 286.321 186.56C286.414 186.533 286.581 186.447 286.821 186.3C287.061 186.153 287.201 186.047 287.241 185.98C287.281 185.913 287.301 185.78 287.301 185.58V180.6C287.301 180.333 287.141 180.067 286.821 179.8C286.501 179.533 286.181 179.4 285.861 179.4ZM286.081 188H282.261C281.941 188 281.621 187.867 281.301 187.6L280.821 187.2C280.501 186.933 280.341 186.6 280.341 186.2V179.8C280.341 179.4 280.501 179.067 280.821 178.8L281.301 178.4C281.621 178.133 281.941 178 282.261 178H285.781C286.101 178 286.421 178.133 286.741 178.4C287.061 178.72 287.221 178.92 287.221 179H287.301V173.2H288.981V185.78C288.981 185.98 288.987 186.113 289.001 186.18C289.027 186.233 289.101 186.307 289.221 186.4C289.341 186.493 289.407 186.573 289.421 186.64C289.447 186.693 289.461 186.82 289.461 187.02V188H288.761C288.521 188 288.354 187.987 288.261 187.96C288.181 187.92 288.061 187.833 287.901 187.7C287.687 187.527 287.581 187.36 287.581 187.2H287.501C287.501 187.36 287.354 187.527 287.061 187.7C286.821 187.847 286.654 187.933 286.561 187.96C286.481 187.987 286.321 188 286.081 188ZM293.804 178H298.604C298.924 178 299.244 178.133 299.564 178.4L300.044 178.8C300.364 179.067 300.524 179.4 300.524 179.8V186.2C300.524 186.6 300.364 186.933 300.044 187.2L299.564 187.6C299.244 187.867 298.924 188 298.604 188H293.804C293.484 188 293.164 187.867 292.844 187.6L292.364 187.2C292.044 186.933 291.884 186.6 291.884 186.2V179.8C291.884 179.4 292.044 179.067 292.364 178.8L292.844 178.4C293.164 178.133 293.484 178 293.804 178ZM298.844 185.78V180.22C298.844 180.02 298.831 179.893 298.804 179.84C298.791 179.773 298.724 179.693 298.604 179.6C298.484 179.507 298.391 179.453 298.324 179.44C298.257 179.413 298.104 179.4 297.864 179.4H294.544C294.304 179.4 294.151 179.413 294.084 179.44C294.017 179.453 293.924 179.507 293.804 179.6C293.684 179.693 293.611 179.773 293.584 179.84C293.571 179.893 293.564 180.02 293.564 180.22V185.78C293.564 185.98 293.571 186.113 293.584 186.18C293.611 186.233 293.684 186.307 293.804 186.4C293.924 186.493 294.017 186.553 294.084 186.58C294.151 186.593 294.304 186.6 294.544 186.6H297.864C298.104 186.6 298.257 186.593 298.324 186.58C298.391 186.553 298.484 186.493 298.604 186.4C298.724 186.307 298.791 186.233 298.804 186.18C298.831 186.113 298.844 185.98 298.844 185.78ZM302.938 178H303.638C303.878 178 304.038 178.02 304.118 178.06C304.212 178.087 304.338 178.167 304.498 178.3C304.712 178.473 304.818 178.64 304.818 178.8H304.898C304.898 178.64 305.045 178.473 305.338 178.3C305.578 178.153 305.738 178.067 305.818 178.04C305.912 178.013 306.078 178 306.318 178H308.158C308.478 178 308.798 178.133 309.118 178.4L309.598 178.8L308.398 179.8L308.158 179.6C308.038 179.507 307.945 179.453 307.878 179.44C307.812 179.413 307.658 179.4 307.418 179.4H306.558C306.318 179.4 306.152 179.413 306.058 179.44C305.978 179.467 305.818 179.553 305.578 179.7C305.338 179.847 305.198 179.953 305.158 180.02C305.118 180.087 305.098 180.22 305.098 180.42V188H303.418V180.22C303.418 180.02 303.405 179.893 303.378 179.84C303.365 179.773 303.298 179.693 303.178 179.6C303.058 179.507 302.985 179.433 302.958 179.38C302.945 179.313 302.938 179.18 302.938 178.98V178ZM318.818 186.2L320.018 187.2L319.538 187.6C319.298 187.8 319.131 187.92 319.038 187.96C318.958 187.987 318.798 188 318.558 188H313.218C312.898 188 312.578 187.867 312.258 187.6L311.778 187.2C311.458 186.933 311.298 186.6 311.298 186.2V179.8C311.298 179.4 311.458 179.067 311.778 178.8L312.258 178.4C312.578 178.133 312.898 178 313.218 178H317.878C318.144 178 318.464 178.133 318.838 178.4L319.338 178.8C319.658 179.04 319.818 179.373 319.818 179.8V183.9H312.978V185.78C312.978 185.98 312.984 186.113 312.998 186.18C313.024 186.233 313.098 186.307 313.218 186.4C313.338 186.493 313.431 186.553 313.498 186.58C313.564 186.593 313.718 186.6 313.958 186.6H317.838C318.078 186.6 318.238 186.587 318.318 186.56C318.411 186.52 318.578 186.4 318.818 186.2ZM318.138 182.6V180.22C318.138 180.02 318.124 179.893 318.098 179.84C318.084 179.773 318.018 179.693 317.898 179.6C317.778 179.507 317.684 179.453 317.618 179.44C317.551 179.413 317.398 179.4 317.158 179.4H313.958C313.718 179.4 313.564 179.413 313.498 179.44C313.431 179.453 313.338 179.507 313.218 179.6C313.098 179.693 313.024 179.773 312.998 179.84C312.984 179.893 312.978 180.02 312.978 180.22V182.6H318.138ZM328.576 182.2C328.896 182.2 329.216 182.333 329.536 182.6L330.016 183C330.336 183.267 330.496 183.6 330.496 184V186.2C330.496 186.6 330.336 186.933 330.016 187.2L329.536 187.6C329.216 187.867 328.896 188 328.576 188H324.136C323.816 188 323.496 187.867 323.176 187.6L322.696 187.2C322.376 186.933 322.216 186.6 322.216 186.2V185.4H323.896V185.78C323.896 185.98 323.902 186.113 323.916 186.18C323.942 186.233 324.016 186.307 324.136 186.4C324.256 186.493 324.349 186.553 324.416 186.58C324.482 186.593 324.636 186.6 324.876 186.6H327.836C328.076 186.6 328.229 186.593 328.296 186.58C328.362 186.553 328.456 186.493 328.576 186.4C328.696 186.307 328.762 186.233 328.776 186.18C328.802 186.113 328.816 185.98 328.816 185.78V184.16C328.802 184.053 328.722 183.933 328.576 183.8C328.456 183.707 328.362 183.653 328.296 183.64C328.229 183.613 328.076 183.6 327.836 183.6H324.336C324.016 183.6 323.696 183.467 323.376 183.2L322.896 182.8C322.576 182.533 322.416 182.2 322.416 181.8V179.8C322.416 179.4 322.576 179.067 322.896 178.8L323.376 178.4C323.696 178.133 324.016 178 324.336 178H328.576C328.896 178 329.216 178.133 329.536 178.4L330.016 178.8C330.336 179.067 330.496 179.4 330.496 179.8V180.6H328.816V180.22C328.816 180.02 328.802 179.893 328.776 179.84C328.762 179.773 328.696 179.693 328.576 179.6C328.456 179.507 328.362 179.453 328.296 179.44C328.229 179.413 328.076 179.4 327.836 179.4H325.076C324.836 179.4 324.682 179.413 324.616 179.44C324.549 179.453 324.456 179.507 324.336 179.6C324.216 179.693 324.142 179.773 324.116 179.84C324.102 179.893 324.096 180.02 324.096 180.22V181.38C324.096 181.58 324.102 181.713 324.116 181.78C324.142 181.833 324.216 181.907 324.336 182C324.456 182.093 324.549 182.153 324.616 182.18C324.682 182.193 324.836 182.2 325.076 182.2H328.576ZM345.899 180.6H344.219V180.22C344.219 180.02 344.206 179.893 344.179 179.84C344.166 179.773 344.099 179.693 343.979 179.6C343.859 179.507 343.766 179.453 343.699 179.44C343.633 179.413 343.479 179.4 343.239 179.4H340.559C340.319 179.4 340.166 179.413 340.099 179.44C340.033 179.453 339.939 179.507 339.819 179.6C339.699 179.693 339.626 179.773 339.599 179.84C339.586 179.893 339.579 180.02 339.579 180.22V185.78C339.579 185.98 339.586 186.113 339.599 186.18C339.626 186.233 339.699 186.307 339.819 186.4C339.939 186.493 340.033 186.553 340.099 186.58C340.166 186.593 340.319 186.6 340.559 186.6H343.239C343.479 186.6 343.633 186.593 343.699 186.58C343.766 186.553 343.859 186.493 343.979 186.4C344.099 186.307 344.166 186.233 344.179 186.18C344.206 186.113 344.219 185.98 344.219 185.78V185.4H345.899V186.2C345.899 186.6 345.739 186.933 345.419 187.2L344.939 187.6C344.619 187.867 344.299 188 343.979 188H339.819C339.499 188 339.179 187.867 338.859 187.6L338.379 187.2C338.059 186.933 337.899 186.6 337.899 186.2V179.8C337.899 179.4 338.059 179.067 338.379 178.8L338.859 178.4C339.179 178.133 339.499 178 339.819 178H343.979C344.299 178 344.619 178.133 344.939 178.4L345.419 178.8C345.739 179.067 345.899 179.4 345.899 179.8V180.6ZM355.232 187.2H355.152C355.152 187.36 355.006 187.527 354.712 187.7C354.472 187.847 354.306 187.933 354.212 187.96C354.132 187.987 353.972 188 353.732 188H350.312C349.992 188 349.672 187.867 349.352 187.6L348.872 187.2C348.552 186.933 348.392 186.6 348.392 186.2V183.8C348.392 183.4 348.552 183.067 348.872 182.8L349.352 182.4C349.672 182.133 349.992 182 350.312 182H353.892C354.146 182 354.306 182.013 354.372 182.04C354.439 182.053 354.526 182.107 354.632 182.2C354.792 182.333 354.872 182.467 354.872 182.6H354.952V180.22C354.952 180.02 354.939 179.893 354.912 179.84C354.899 179.773 354.832 179.693 354.712 179.6C354.592 179.507 354.499 179.453 354.432 179.44C354.366 179.413 354.212 179.4 353.972 179.4H350.732C350.492 179.4 350.326 179.42 350.232 179.46C350.152 179.487 349.992 179.6 349.752 179.8L348.552 178.8L349.032 178.4C349.272 178.2 349.432 178.087 349.512 178.06C349.606 178.02 349.772 178 350.012 178H354.712C355.032 178 355.352 178.133 355.672 178.4L356.152 178.8C356.472 179.067 356.632 179.4 356.632 179.8V185.78C356.632 185.98 356.639 186.113 356.652 186.18C356.679 186.233 356.752 186.307 356.872 186.4C356.992 186.493 357.059 186.573 357.072 186.64C357.099 186.693 357.112 186.82 357.112 187.02V188H356.412C356.172 188 356.006 187.987 355.912 187.96C355.832 187.92 355.712 187.833 355.552 187.7C355.339 187.527 355.232 187.36 355.232 187.2ZM350.072 184.22V185.78C350.072 185.98 350.079 186.113 350.092 186.18C350.119 186.233 350.192 186.307 350.312 186.4C350.432 186.493 350.526 186.553 350.592 186.58C350.659 186.593 350.812 186.6 351.052 186.6H353.492C353.732 186.6 353.892 186.587 353.972 186.56C354.066 186.533 354.232 186.447 354.472 186.3C354.712 186.153 354.852 186.047 354.892 185.98C354.932 185.913 354.952 185.78 354.952 185.58V184.22C354.952 184.02 354.939 183.893 354.912 183.84C354.899 183.773 354.832 183.693 354.712 183.6C354.592 183.507 354.499 183.453 354.432 183.44C354.366 183.413 354.212 183.4 353.972 183.4H351.052C350.812 183.4 350.659 183.413 350.592 183.44C350.526 183.453 350.432 183.507 350.312 183.6C350.192 183.693 350.119 183.773 350.092 183.84C350.079 183.893 350.072 184.02 350.072 184.22ZM365.04 179.4H362.18C361.94 179.4 361.787 179.413 361.72 179.44C361.654 179.453 361.56 179.507 361.44 179.6C361.32 179.693 361.247 179.773 361.22 179.84C361.207 179.893 361.2 180.02 361.2 180.22V185.78C361.2 185.98 361.207 186.113 361.22 186.18C361.247 186.233 361.32 186.307 361.44 186.4C361.56 186.493 361.654 186.553 361.72 186.58C361.787 186.593 361.94 186.6 362.18 186.6H365.02C365.26 186.6 365.42 186.587 365.5 186.56C365.594 186.533 365.76 186.447 366 186.3C366.24 186.153 366.38 186.047 366.42 185.98C366.46 185.913 366.48 185.78 366.48 185.58V180.6C366.48 180.333 366.32 180.067 366 179.8C365.68 179.533 365.36 179.4 365.04 179.4ZM365.26 188H361.44C361.12 188 360.8 187.867 360.48 187.6L360 187.2C359.68 186.933 359.52 186.6 359.52 186.2V179.8C359.52 179.4 359.68 179.067 360 178.8L360.48 178.4C360.8 178.133 361.12 178 361.44 178H364.96C365.28 178 365.6 178.133 365.92 178.4C366.24 178.72 366.4 178.92 366.4 179H366.48V173.2H368.16V185.78C368.16 185.98 368.167 186.113 368.18 186.18C368.207 186.233 368.28 186.307 368.4 186.4C368.52 186.493 368.587 186.573 368.6 186.64C368.627 186.693 368.64 186.82 368.64 187.02V188H367.94C367.7 188 367.534 187.987 367.44 187.96C367.36 187.92 367.24 187.833 367.08 187.7C366.867 187.527 366.76 187.36 366.76 187.2H366.68C366.68 187.36 366.534 187.527 366.24 187.7C366 187.847 365.834 187.933 365.74 187.96C365.66 187.987 365.5 188 365.26 188ZM378.084 187.2H378.004C378.004 187.36 377.857 187.527 377.564 187.7C377.324 187.847 377.157 187.933 377.064 187.96C376.984 187.987 376.824 188 376.584 188H373.164C372.844 188 372.524 187.867 372.204 187.6L371.724 187.2C371.404 186.933 371.244 186.6 371.244 186.2V183.8C371.244 183.4 371.404 183.067 371.724 182.8L372.204 182.4C372.524 182.133 372.844 182 373.164 182H376.744C376.997 182 377.157 182.013 377.224 182.04C377.29 182.053 377.377 182.107 377.484 182.2C377.644 182.333 377.724 182.467 377.724 182.6H377.804V180.22C377.804 180.02 377.79 179.893 377.764 179.84C377.75 179.773 377.684 179.693 377.564 179.6C377.444 179.507 377.35 179.453 377.284 179.44C377.217 179.413 377.064 179.4 376.824 179.4H373.584C373.344 179.4 373.177 179.42 373.084 179.46C373.004 179.487 372.844 179.6 372.604 179.8L371.404 178.8L371.884 178.4C372.124 178.2 372.284 178.087 372.364 178.06C372.457 178.02 372.624 178 372.864 178H377.564C377.884 178 378.204 178.133 378.524 178.4L379.004 178.8C379.324 179.067 379.484 179.4 379.484 179.8V185.78C379.484 185.98 379.49 186.113 379.504 186.18C379.53 186.233 379.604 186.307 379.724 186.4C379.844 186.493 379.91 186.573 379.924 186.64C379.95 186.693 379.964 186.82 379.964 187.02V188H379.264C379.024 188 378.857 187.987 378.764 187.96C378.684 187.92 378.564 187.833 378.404 187.7C378.19 187.527 378.084 187.36 378.084 187.2ZM372.924 184.22V185.78C372.924 185.98 372.93 186.113 372.944 186.18C372.97 186.233 373.044 186.307 373.164 186.4C373.284 186.493 373.377 186.553 373.444 186.58C373.51 186.593 373.664 186.6 373.904 186.6H376.344C376.584 186.6 376.744 186.587 376.824 186.56C376.917 186.533 377.084 186.447 377.324 186.3C377.564 186.153 377.704 186.047 377.744 185.98C377.784 185.913 377.804 185.78 377.804 185.58V184.22C377.804 184.02 377.79 183.893 377.764 183.84C377.75 183.773 377.684 183.693 377.564 183.6C377.444 183.507 377.35 183.453 377.284 183.44C377.217 183.413 377.064 183.4 376.824 183.4H373.904C373.664 183.4 373.51 183.413 373.444 183.44C373.377 183.453 373.284 183.507 373.164 183.6C373.044 183.693 372.97 183.773 372.944 183.84C372.93 183.893 372.924 184.02 372.924 184.22ZM388.732 182.2C389.052 182.2 389.372 182.333 389.692 182.6L390.172 183C390.492 183.267 390.652 183.6 390.652 184V186.2C390.652 186.6 390.492 186.933 390.172 187.2L389.692 187.6C389.372 187.867 389.052 188 388.732 188H384.292C383.972 188 383.652 187.867 383.332 187.6L382.852 187.2C382.532 186.933 382.372 186.6 382.372 186.2V185.4H384.052V185.78C384.052 185.98 384.059 186.113 384.072 186.18C384.099 186.233 384.172 186.307 384.292 186.4C384.412 186.493 384.505 186.553 384.572 186.58C384.639 186.593 384.792 186.6 385.032 186.6H387.992C388.232 186.6 388.385 186.593 388.452 186.58C388.519 186.553 388.612 186.493 388.732 186.4C388.852 186.307 388.919 186.233 388.932 186.18C388.959 186.113 388.972 185.98 388.972 185.78V184.16C388.959 184.053 388.879 183.933 388.732 183.8C388.612 183.707 388.519 183.653 388.452 183.64C388.385 183.613 388.232 183.6 387.992 183.6H384.492C384.172 183.6 383.852 183.467 383.532 183.2L383.052 182.8C382.732 182.533 382.572 182.2 382.572 181.8V179.8C382.572 179.4 382.732 179.067 383.052 178.8L383.532 178.4C383.852 178.133 384.172 178 384.492 178H388.732C389.052 178 389.372 178.133 389.692 178.4L390.172 178.8C390.492 179.067 390.652 179.4 390.652 179.8V180.6H388.972V180.22C388.972 180.02 388.959 179.893 388.932 179.84C388.919 179.773 388.852 179.693 388.732 179.6C388.612 179.507 388.519 179.453 388.452 179.44C388.385 179.413 388.232 179.4 387.992 179.4H385.232C384.992 179.4 384.839 179.413 384.772 179.44C384.705 179.453 384.612 179.507 384.492 179.6C384.372 179.693 384.299 179.773 384.272 179.84C384.259 179.893 384.252 180.02 384.252 180.22V181.38C384.252 181.58 384.259 181.713 384.272 181.78C384.299 181.833 384.372 181.907 384.492 182C384.612 182.093 384.705 182.153 384.772 182.18C384.839 182.193 384.992 182.2 385.232 182.2H388.732ZM395.355 175.2V178H397.915C398.089 178.133 398.189 178.24 398.215 178.32C398.255 178.387 398.275 178.573 398.275 178.88V179.4H395.355V185.78C395.355 185.98 395.362 186.113 395.375 186.18C395.402 186.233 395.475 186.307 395.595 186.4C395.715 186.493 395.809 186.553 395.875 186.58C395.942 186.593 396.095 186.6 396.335 186.6H398.155C398.329 186.733 398.429 186.84 398.455 186.92C398.495 186.987 398.515 187.173 398.515 187.48V188H395.595C395.275 188 394.955 187.867 394.635 187.6L394.155 187.2C393.835 186.933 393.675 186.6 393.675 186.2V179.4H392.715C392.542 179.267 392.435 179.167 392.395 179.1C392.369 179.02 392.355 178.827 392.355 178.52V178H393.675V175.2H395.355ZM400.614 178H401.314C401.554 178 401.714 178.02 401.794 178.06C401.887 178.087 402.014 178.167 402.174 178.3C402.387 178.473 402.494 178.64 402.494 178.8H402.574C402.574 178.64 402.721 178.473 403.014 178.3C403.254 178.153 403.414 178.067 403.494 178.04C403.587 178.013 403.754 178 403.994 178H405.834C406.154 178 406.474 178.133 406.794 178.4L407.274 178.8L406.074 179.8L405.834 179.6C405.714 179.507 405.621 179.453 405.554 179.44C405.487 179.413 405.334 179.4 405.094 179.4H404.234C403.994 179.4 403.827 179.413 403.734 179.44C403.654 179.467 403.494 179.553 403.254 179.7C403.014 179.847 402.874 179.953 402.834 180.02C402.794 180.087 402.774 180.22 402.774 180.42V188H401.094V180.22C401.094 180.02 401.081 179.893 401.054 179.84C401.041 179.773 400.974 179.693 400.854 179.6C400.734 179.507 400.661 179.433 400.634 179.38C400.621 179.313 400.614 179.18 400.614 178.98V178ZM416.013 187.2H415.933C415.933 187.36 415.787 187.527 415.493 187.7C415.253 187.847 415.087 187.933 414.993 187.96C414.913 187.987 414.753 188 414.513 188H411.093C410.773 188 410.453 187.867 410.133 187.6L409.653 187.2C409.333 186.933 409.173 186.6 409.173 186.2V183.8C409.173 183.4 409.333 183.067 409.653 182.8L410.133 182.4C410.453 182.133 410.773 182 411.093 182H414.673C414.927 182 415.087 182.013 415.153 182.04C415.22 182.053 415.307 182.107 415.413 182.2C415.573 182.333 415.653 182.467 415.653 182.6H415.733V180.22C415.733 180.02 415.72 179.893 415.693 179.84C415.68 179.773 415.613 179.693 415.493 179.6C415.373 179.507 415.28 179.453 415.213 179.44C415.147 179.413 414.993 179.4 414.753 179.4H411.513C411.273 179.4 411.107 179.42 411.013 179.46C410.933 179.487 410.773 179.6 410.533 179.8L409.333 178.8L409.813 178.4C410.053 178.2 410.213 178.087 410.293 178.06C410.387 178.02 410.553 178 410.793 178H415.493C415.813 178 416.133 178.133 416.453 178.4L416.933 178.8C417.253 179.067 417.413 179.4 417.413 179.8V185.78C417.413 185.98 417.42 186.113 417.433 186.18C417.46 186.233 417.533 186.307 417.653 186.4C417.773 186.493 417.84 186.573 417.853 186.64C417.88 186.693 417.893 186.82 417.893 187.02V188H417.193C416.953 188 416.787 187.987 416.693 187.96C416.613 187.92 416.493 187.833 416.333 187.7C416.12 187.527 416.013 187.36 416.013 187.2ZM410.853 184.22V185.78C410.853 185.98 410.86 186.113 410.873 186.18C410.9 186.233 410.973 186.307 411.093 186.4C411.213 186.493 411.307 186.553 411.373 186.58C411.44 186.593 411.593 186.6 411.833 186.6H414.273C414.513 186.6 414.673 186.587 414.753 186.56C414.847 186.533 415.013 186.447 415.253 186.3C415.493 186.153 415.633 186.047 415.673 185.98C415.713 185.913 415.733 185.78 415.733 185.58V184.22C415.733 184.02 415.72 183.893 415.693 183.84C415.68 183.773 415.613 183.693 415.493 183.6C415.373 183.507 415.28 183.453 415.213 183.44C415.147 183.413 414.993 183.4 414.753 183.4H411.833C411.593 183.4 411.44 183.413 411.373 183.44C411.307 183.453 411.213 183.507 411.093 183.6C410.973 183.693 410.9 183.773 410.873 183.84C410.86 183.893 410.853 184.02 410.853 184.22ZM425.822 179.4H422.962C422.722 179.4 422.568 179.413 422.502 179.44C422.435 179.453 422.342 179.507 422.222 179.6C422.102 179.693 422.028 179.773 422.002 179.84C421.988 179.893 421.982 180.02 421.982 180.22V185.78C421.982 185.98 421.988 186.113 422.002 186.18C422.028 186.233 422.102 186.307 422.222 186.4C422.342 186.493 422.435 186.553 422.502 186.58C422.568 186.593 422.722 186.6 422.962 186.6H425.802C426.042 186.6 426.202 186.587 426.282 186.56C426.375 186.533 426.542 186.447 426.782 186.3C427.022 186.153 427.162 186.047 427.202 185.98C427.242 185.913 427.262 185.78 427.262 185.58V180.6C427.262 180.333 427.102 180.067 426.782 179.8C426.462 179.533 426.142 179.4 425.822 179.4ZM426.042 188H422.222C421.902 188 421.582 187.867 421.262 187.6L420.782 187.2C420.462 186.933 420.302 186.6 420.302 186.2V179.8C420.302 179.4 420.462 179.067 420.782 178.8L421.262 178.4C421.582 178.133 421.902 178 422.222 178H425.742C426.062 178 426.382 178.133 426.702 178.4C427.022 178.72 427.182 178.92 427.182 179H427.262V173.2H428.942V185.78C428.942 185.98 428.948 186.113 428.962 186.18C428.988 186.233 429.062 186.307 429.182 186.4C429.302 186.493 429.368 186.573 429.382 186.64C429.408 186.693 429.422 186.82 429.422 187.02V188H428.722C428.482 188 428.315 187.987 428.222 187.96C428.142 187.92 428.022 187.833 427.862 187.7C427.648 187.527 427.542 187.36 427.542 187.2H427.462C427.462 187.36 427.315 187.527 427.022 187.7C426.782 187.847 426.615 187.933 426.522 187.96C426.442 187.987 426.282 188 426.042 188ZM433.765 178H438.565C438.885 178 439.205 178.133 439.525 178.4L440.005 178.8C440.325 179.067 440.485 179.4 440.485 179.8V186.2C440.485 186.6 440.325 186.933 440.005 187.2L439.525 187.6C439.205 187.867 438.885 188 438.565 188H433.765C433.445 188 433.125 187.867 432.805 187.6L432.325 187.2C432.005 186.933 431.845 186.6 431.845 186.2V179.8C431.845 179.4 432.005 179.067 432.325 178.8L432.805 178.4C433.125 178.133 433.445 178 433.765 178ZM438.805 185.78V180.22C438.805 180.02 438.792 179.893 438.765 179.84C438.752 179.773 438.685 179.693 438.565 179.6C438.445 179.507 438.352 179.453 438.285 179.44C438.218 179.413 438.065 179.4 437.825 179.4H434.505C434.265 179.4 434.112 179.413 434.045 179.44C433.978 179.453 433.885 179.507 433.765 179.6C433.645 179.693 433.572 179.773 433.545 179.84C433.532 179.893 433.525 180.02 433.525 180.22V185.78C433.525 185.98 433.532 186.113 433.545 186.18C433.572 186.233 433.645 186.307 433.765 186.4C433.885 186.493 433.978 186.553 434.045 186.58C434.112 186.593 434.265 186.6 434.505 186.6H437.825C438.065 186.6 438.218 186.593 438.285 186.58C438.352 186.553 438.445 186.493 438.565 186.4C438.685 186.307 438.752 186.233 438.765 186.18C438.792 186.113 438.805 185.98 438.805 185.78ZM449.259 182.2C449.579 182.2 449.899 182.333 450.219 182.6L450.699 183C451.019 183.267 451.179 183.6 451.179 184V186.2C451.179 186.6 451.019 186.933 450.699 187.2L450.219 187.6C449.899 187.867 449.579 188 449.259 188H444.819C444.499 188 444.179 187.867 443.859 187.6L443.379 187.2C443.059 186.933 442.899 186.6 442.899 186.2V185.4H444.579V185.78C444.579 185.98 444.586 186.113 444.599 186.18C444.626 186.233 444.699 186.307 444.819 186.4C444.939 186.493 445.033 186.553 445.099 186.58C445.166 186.593 445.319 186.6 445.559 186.6H448.519C448.759 186.6 448.913 186.593 448.979 186.58C449.046 186.553 449.139 186.493 449.259 186.4C449.379 186.307 449.446 186.233 449.459 186.18C449.486 186.113 449.499 185.98 449.499 185.78V184.16C449.486 184.053 449.406 183.933 449.259 183.8C449.139 183.707 449.046 183.653 448.979 183.64C448.913 183.613 448.759 183.6 448.519 183.6H445.019C444.699 183.6 444.379 183.467 444.059 183.2L443.579 182.8C443.259 182.533 443.099 182.2 443.099 181.8V179.8C443.099 179.4 443.259 179.067 443.579 178.8L444.059 178.4C444.379 178.133 444.699 178 445.019 178H449.259C449.579 178 449.899 178.133 450.219 178.4L450.699 178.8C451.019 179.067 451.179 179.4 451.179 179.8V180.6H449.499V180.22C449.499 180.02 449.486 179.893 449.459 179.84C449.446 179.773 449.379 179.693 449.259 179.6C449.139 179.507 449.046 179.453 448.979 179.44C448.913 179.413 448.759 179.4 448.519 179.4H445.759C445.519 179.4 445.366 179.413 445.299 179.44C445.233 179.453 445.139 179.507 445.019 179.6C444.899 179.693 444.826 179.773 444.799 179.84C444.786 179.893 444.779 180.02 444.779 180.22V181.38C444.779 181.58 444.786 181.713 444.799 181.78C444.826 181.833 444.899 181.907 445.019 182C445.139 182.093 445.233 182.153 445.299 182.18C445.366 182.193 445.519 182.2 445.759 182.2H449.259ZM456.063 187.28V186.82C456.063 186.54 456.009 186.347 455.903 186.24C455.796 186.147 455.583 186.1 455.263 186.1H455.183C454.863 186.1 454.656 186.147 454.563 186.24C454.469 186.32 454.416 186.387 454.403 186.44C454.389 186.493 454.383 186.62 454.383 186.82V187.28C454.383 187.56 454.436 187.753 454.543 187.86C454.649 187.953 454.863 188 455.183 188H455.283C455.589 188 455.789 187.953 455.883 187.86C455.976 187.78 456.029 187.713 456.043 187.66C456.056 187.607 456.063 187.48 456.063 187.28ZM455.843 184.2H454.603L454.383 179V174H456.063V179L455.843 184.2Z" fill="white"/>
</svg>
