<svg width="53" height="42" viewBox="0 0 53 42" fill="none" xmlns="http://www.w3.org/2000/svg">
<path d="M0.984021 20.3535C0.440562 17.6461 2.1948 15.0107 4.90221 14.4673L19.3094 11.5753L23.9483 34.6858L9.54117 37.5777C6.83375 38.1212 4.19839 36.3669 3.65493 33.6595L0.984021 20.3535Z" fill="white"/>
<path d="M32.7867 16.4428C33.2033 13.713 35.7541 11.8378 38.4839 12.2544L47.9038 13.6921C50.6336 14.1088 52.5088 16.6595 52.0921 19.3893L50.0445 32.8054C49.6278 35.5352 47.0771 37.4104 44.3473 36.9937L29.9846 34.8016L32.7867 16.4428Z" fill="white"/>
<path d="M8.14591 30.343L9.27891 29.155H11.9959L13.0629 30.343H8.14591ZM7.81591 24.942L9.00391 26.086V28.781L7.81591 29.859V24.942ZM13.4149 29.859L12.2269 28.726V26.02L13.4149 24.942V29.859ZM8.13491 19.167H13.0519L11.9629 20.355H9.26791L8.13491 19.167ZM7.78291 24.557V19.64L8.97091 20.707V23.435L7.78291 24.557ZM13.3819 19.64V24.557L12.1939 23.49V20.773L13.3819 19.64Z" fill="black"/>
<path d="M8.14591 30.343L9.27891 29.155H11.9959L13.0629 30.343H8.14591ZM7.81591 24.942L9.00391 26.086V28.781L7.81591 29.859V24.942ZM13.4149 29.859L12.2269 28.726V26.02L13.4149 24.942V29.859ZM8.13491 19.167H13.0519L11.9629 20.355H9.26791L8.13491 19.167ZM7.78291 24.557V19.64L8.97091 20.707V23.435L7.78291 24.557ZM13.3819 19.64V24.557L12.1939 23.49V20.773L13.3819 19.64Z" fill="black"/>
<path d="M8.14591 30.343L9.27891 29.155H11.9959L13.0629 30.343H8.14591ZM7.81591 24.942L9.00391 26.086V28.781L7.81591 29.859V24.942ZM13.4149 29.859L12.2269 28.726V26.02L13.4149 24.942V29.859ZM8.13491 19.167H13.0519L11.9629 20.355H9.26791L8.13491 19.167ZM7.78291 24.557V19.64L8.97091 20.707V23.435L7.78291 24.557ZM13.3819 19.64V24.557L12.1939 23.49V20.773L13.3819 19.64Z" fill="black"/>
<path d="M40.1459 30.343L41.2789 29.155H43.9959L45.0629 30.343H40.1459ZM39.8159 24.942L41.0039 26.086V28.781L39.8159 29.859V24.942ZM45.4149 29.859L44.2269 28.726V26.02L45.4149 24.942V29.859ZM40.1349 19.167H45.0519L43.9629 20.355H41.2679L40.1349 19.167ZM39.7829 24.557V19.64L40.9709 20.707V23.435L39.7829 24.557ZM45.3819 19.64V24.557L44.1939 23.49V20.773L45.3819 19.64Z" fill="black"/>
<path d="M40.1459 30.343L41.2789 29.155H43.9959L45.0629 30.343H40.1459ZM39.8159 24.942L41.0039 26.086V28.781L39.8159 29.859V24.942ZM45.4149 29.859L44.2269 28.726V26.02L45.4149 24.942V29.859ZM40.1349 19.167H45.0519L43.9629 20.355H41.2679L40.1349 19.167ZM39.7829 24.557V19.64L40.9709 20.707V23.435L39.7829 24.557ZM45.3819 19.64V24.557L44.1939 23.49V20.773L45.3819 19.64Z" fill="black"/>
<path d="M40.1459 30.343L41.2789 29.155H43.9959L45.0629 30.343H40.1459ZM39.8159 24.942L41.0039 26.086V28.781L39.8159 29.859V24.942ZM45.4149 29.859L44.2269 28.726V26.02L45.4149 24.942V29.859ZM40.1349 19.167H45.0519L43.9629 20.355H41.2679L40.1349 19.167ZM39.7829 24.557V19.64L40.9709 20.707V23.435L39.7829 24.557ZM45.3819 19.64V24.557L44.1939 23.49V20.773L45.3819 19.64Z" fill="black"/>
<path d="M34.75 9.75C35.5417 9.75 36.3333 10.0208 37.125 10.5625C38.2917 11.3542 38.875 12.3125 38.875 13.4375C38.875 14.125 38.7083 14.8438 38.375 15.5938C38.0417 16.3438 37.625 17.0625 37.125 17.75L31.5625 25.375L37.125 32.9375C37.6042 33.6667 38.0104 34.3958 38.3438 35.125C38.6979 35.8542 38.875 36.5625 38.875 37.25C38.875 38.4167 38.2917 39.3958 37.125 40.1875C36.2708 40.7292 35.5 41 34.8125 41C33.9167 41 33.1354 40.6458 32.4688 39.9375C31.8021 39.2292 31.1458 38.4375 30.5 37.5625L26.75 32.3125L22.875 37.5625C22.3333 38.4583 21.7083 39.2604 21 39.9688C20.3125 40.6562 19.5417 41 18.6875 41C18 41 17.2292 40.7292 16.375 40.1875C15.2083 39.375 14.625 38.3958 14.625 37.25C14.625 36.5625 14.7917 35.8542 15.125 35.125C15.4792 34.3958 15.8958 33.6667 16.375 32.9375L21.625 25.375L16.375 17.75C15.8958 17.0208 15.4792 16.3021 15.125 15.5938C14.7917 14.8854 14.625 14.1875 14.625 13.5C14.625 12.3542 15.2083 11.375 16.375 10.5625C17.2292 10.0208 18 9.75 18.6875 9.75C19.5417 9.75 20.3125 10.0938 21 10.7812C21.6875 11.4688 22.3125 12.25 22.875 13.125L26.75 18.375L30.5 13.125C31.1042 12.25 31.7396 11.4688 32.4062 10.7812C33.0729 10.0938 33.8542 9.75 34.75 9.75Z" fill="#FCAA16"/>
</svg>
